<?xml version="1.0" encoding="utf-8"?>
<!-- Generator: Adobe Illustrator 25.2.3, SVG Export Plug-In . SVG Version: 6.00 Build 0)  -->
<svg version="1.1" id="Calque_1" xmlns="http://www.w3.org/2000/svg" xmlns:xlink="http://www.w3.org/1999/xlink" x="0px" y="0px"
	 viewBox="0 0 700 700" style="enable-background:new 0 0 700 700;" xml:space="preserve">
<style type="text/css">
	.st0{fill:#FFFCD3;}
	.st1{fill:#1C3657;}
	.st2{fill:#E8D913;}
</style>
<g>
	<circle class="st0" cx="356.3" cy="352" r="229"/>
</g>
<g>
	<circle class="st1" cx="356.3" cy="352" r="206.5"/>
</g>
<g>
	<path class="st2" d="M461.6,396.1c-2.7,0-5.6,0.7-9.7,0.7c-4.5,0-25.6,5.4-50.5,5.4s-53-5.3-72.5-26.2
		c-14.3-14.8-27.5-30.7-39.3-47.6c-4.8-7-7.5-15.2-8-23.7l-1.2-22.7v-0.2l7.4,2l1.1,20.5v0c0.4,7.1,2.7,14,6.7,19.9
		c11.7,16.5,24.6,32.2,38.7,46.8c14.8,15.8,37.4,23.8,67.2,23.8h0c13.8-0.2,27.6-1.6,41.1-4.1c3.1-0.6,6.3-1.1,9.4-1.3
		c1.7,0,3.4-0.1,5.1-0.4c1.6-0.2,3.1-0.3,4.7-0.4h1.7c23.7-23.3,21.5-50.5,21.5-50.5c-1.2-4.8-13.1-10.3-13.1-10.3
		c-20.8,1.4-33,22.4-71.7,26.7c-33.2,3.7-76.4-29.6-82.9-35.1h0c-5.3-4.2-11-7.9-16.9-11.1c-2.2-3-4.1-19.1-4-24.2
		c2.5-0.5,5.1-1.1,6-1.4c1.8-0.6,1.5-11.4-0.9-12l-2.3-0.5v0c-5.1-1.1-9.9-3-14.4-5.7c-3.7-2.4-7.9-4.1-12.2-4.9
		c-2.9-0.7-5.8-1-8.7-1c-6.6,0-13.2,1.4-13.2,4.2c0.9,4.6,2.4,9.1,4.5,13.2c1.6,2.5,3.6,0.5,5.9,2.5c6.3,6,3.1,27.8-4.8,34.9
		c-7.9,7.2-23.5,53.4,24.1,105c24.8,26.9,62.4,42.2,99.6,42.2c34.4,0,68.5-13,91.9-42.2h0c2.1-2.2,3.2-5.1,3.2-8.1
		c0-3-1.1-5.9-3.2-8.1C467.9,397.2,465,396.1,461.6,396.1L461.6,396.1z"/>
</g>
</svg>
