<svg width="318" height="323" viewBox="0 0 318 323" fill="none" xmlns="http://www.w3.org/2000/svg">
<path d="M272.613 168.879V46.0282C272.613 39.9185 270.212 34.0716 265.993 29.7357C261.709 25.3997 255.932 23.0347 249.895 23.0347H215.819V11.5379C215.819 7.39909 213.677 3.65443 210.107 1.55216C206.537 -0.550105 202.253 -0.484409 198.748 1.55216C195.243 3.58873 193.036 7.39909 193.036 11.5379V23.0347H147.601V11.5379C147.601 7.39909 145.459 3.65443 141.889 1.55216C138.319 -0.550105 134.035 -0.484409 130.53 1.55216C127.025 3.58873 124.818 7.39909 124.818 11.5379V23.0347H79.3824V11.5379C79.3824 7.39909 77.2404 3.65443 73.6705 1.55216C70.1006 -0.550105 65.8166 -0.484409 62.3116 1.55216C58.8066 3.58873 56.5997 7.39909 56.5997 11.5379V23.0347H22.7178C16.6813 23.0347 10.9045 25.4654 6.62061 29.7357C2.33668 34.0716 0 39.9185 0 46.0282V218.48C0 224.589 2.40159 230.436 6.62061 234.772C10.9045 239.108 16.6813 241.473 22.7178 241.473H159.024C159.024 260.788 165.84 279.445 178.237 294.096C190.699 308.746 207.9 318.337 226.723 321.228C245.612 324.053 264.824 319.98 280.921 309.665C297.019 299.351 308.962 283.519 314.544 265.058C320.126 246.598 318.893 226.757 311.233 209.085C303.574 191.413 289.814 177.157 272.613 168.879ZM56.7944 46.0282V57.525C56.7944 61.6638 58.9364 65.4085 62.5063 67.5108C66.0763 69.613 70.3602 69.5473 73.8652 67.5108C77.3702 65.4742 79.5771 61.6638 79.5771 57.525V46.0282H125.013V57.525C125.013 61.6638 127.155 65.4085 130.725 67.5108C134.294 69.613 138.578 69.5473 142.083 67.5108C145.588 65.4742 147.795 61.6638 147.795 57.525V46.0282H193.231V57.525C193.231 61.6638 195.373 65.4085 198.943 67.5108C202.513 69.613 206.797 69.5473 210.302 67.5108C213.807 65.4742 216.014 61.6638 216.014 57.525V46.0282H249.895V80.5185H22.7178V46.0282H56.7944ZM22.7178 218.48V103.512H249.895V161.916C231.007 159.025 211.73 163.098 195.632 173.544C179.535 183.924 167.722 199.953 162.4 218.48H22.7178ZM238.537 298.957C223.478 298.957 209.004 292.913 198.359 282.139C187.714 271.365 181.742 256.715 181.742 241.473C181.742 226.232 187.714 211.582 198.359 200.808C209.004 190.033 223.478 183.989 238.537 183.989C253.595 183.989 268.07 190.033 278.715 200.808C289.36 211.582 295.331 226.232 295.331 241.473C295.331 256.715 289.295 271.299 278.65 282.073C268.005 292.913 253.595 298.957 238.537 298.957ZM249.895 206.983V241.473C249.895 244.495 248.727 247.452 246.585 249.62L230.553 265.846C228.411 268.08 225.555 269.328 222.504 269.328C219.454 269.328 216.533 268.146 214.391 265.978C212.249 263.81 211.016 260.854 211.081 257.766C211.081 254.678 212.379 251.722 214.521 249.62L227.243 236.743V206.983C227.243 202.844 229.385 199.099 232.955 196.997C236.524 194.895 240.808 194.961 244.313 196.997C247.818 199.034 249.895 202.91 249.895 206.983ZM90.8711 138.002C90.8711 141.024 89.7027 143.981 87.5608 146.149C85.4188 148.317 82.5629 149.499 79.5122 149.499H56.7944C52.7052 149.499 49.0055 147.331 46.9284 143.718C44.8514 140.105 44.9163 135.769 46.9284 132.221C48.9406 128.674 52.7052 126.44 56.7944 126.44H79.5122C82.498 126.44 85.4188 127.622 87.5608 129.79C89.7027 132.024 90.8711 134.98 90.8711 138.002ZM90.8711 183.989C90.8711 187.011 89.7027 189.968 87.5608 192.136C85.4188 194.304 82.5629 195.486 79.5122 195.486H56.7944C52.7052 195.486 49.0055 193.318 46.9284 189.705C44.8514 186.092 44.9163 181.756 46.9284 178.208C48.9406 174.661 52.7052 172.427 56.7944 172.427H79.5122C82.498 172.427 85.4188 173.609 87.5608 175.777C89.7027 177.945 90.8711 180.967 90.8711 183.989ZM159.024 138.002C159.024 141.024 157.856 143.981 155.714 146.149C153.572 148.317 150.716 149.499 147.666 149.499H124.948C120.859 149.499 117.159 147.331 115.082 143.718C113.005 140.105 113.07 135.769 115.082 132.221C117.094 128.674 120.859 126.44 124.948 126.44H147.666C150.651 126.44 153.572 127.622 155.714 129.79C157.856 132.024 159.024 134.98 159.024 138.002ZM159.024 183.989C159.024 187.011 157.856 189.968 155.714 192.136C153.572 194.304 150.716 195.486 147.666 195.486H124.948C120.859 195.486 117.159 193.318 115.082 189.705C113.005 186.092 113.07 181.756 115.082 178.208C117.094 174.661 120.859 172.427 124.948 172.427H147.666C150.651 172.427 153.572 173.609 155.714 175.777C157.856 177.945 159.024 180.967 159.024 183.989ZM181.742 138.002C181.742 134.98 182.911 132.024 185.052 129.856C187.194 127.688 190.05 126.506 193.101 126.506H215.819C219.908 126.506 223.608 128.674 225.685 132.287C227.762 135.9 227.697 140.236 225.685 143.784C223.673 147.331 219.908 149.565 215.819 149.565H193.101C190.115 149.565 187.194 148.382 185.052 146.214C182.911 144.046 181.742 141.09 181.742 138.002Z" fill="#1C3657"/>
</svg>
