<?xml version="1.0" encoding="utf-8"?>
<!-- Generator: Adobe Illustrator 25.2.3, SVG Export Plug-In . SVG Version: 6.00 Build 0)  -->
<svg version="1.1" id="Calque_1" xmlns="http://www.w3.org/2000/svg" xmlns:xlink="http://www.w3.org/1999/xlink" x="0px" y="0px"
	 viewBox="0 0 700 700" style="enable-background:new 0 0 700 700;" xml:space="preserve">
<style type="text/css">
	.st0{fill:#FFFCD3;}
	.st1{fill:#1C3657;}
	.st2{fill:#FF7235;}
	.st3{fill:#FFFFFF;}
</style>
<g>
	<circle class="st0" cx="356.3" cy="352" r="229"/>
</g>
<g>
	<circle class="st1" cx="356.3" cy="352" r="206.5"/>
</g>
<g>
	<path class="st2" d="M204.2,365c0,0,8.8-7.7,19.8-4.9c11,2.7,94.4,57.1,109.8,72.5c15.4,15.4,40.1,15.4,53.3,9.9
		c13.2-5.5,43.9-31.3,50.5-31.3c6.6,0,34,8.8,35.1,6.6s17-64.2,11.5-76.9c-5.5-12.6-38.4-62.1-64.2-67.5c-25.8-5.5-62.5-6-75.2-3.3
		c-12.7,2.7-58.8,69.7-58.8,69.7S219.1,339.2,204.2,365z"/>
</g>
<g>
	<path class="st3" d="M436.6,411.1c-0.5,0-1-0.2-1.4-0.6c-0.9-0.8-78.8-71.3-131.8-71.3c-4.8,0-9.4,0.6-13.6,1.8
		c-1.2,0.3-2.4-0.3-2.7-1.5c-0.3-1.1,0.3-2.3,1.5-2.7c54.6-15.8,145.7,66.9,149.6,70.4c0.9,0.8,0.9,2.2,0.2,3
		C437.7,410.9,437.2,411.1,436.6,411.1z"/>
</g>
<g>
	<path class="st3" d="M436.6,411.1c-0.1,0-0.1,0-0.2,0c-1.2-0.1-2-1.1-2-2.3c0.1-0.9,7.6-92.7-9.2-130.3c-0.5-1.1,0-2.4,1.1-2.8
		c1.1-0.5,2.4,0,2.8,1.1c17.2,38.6,9.9,128.6,9.6,132.4C438.6,410.3,437.7,411.1,436.6,411.1z"/>
</g>
</svg>
