<?xml version="1.0" encoding="utf-8"?>
<!-- Generator: Adobe Illustrator 25.2.3, SVG Export Plug-In . SVG Version: 6.00 Build 0)  -->
<svg version="1.1" id="Calque_1" xmlns="http://www.w3.org/2000/svg" xmlns:xlink="http://www.w3.org/1999/xlink" x="0px" y="0px"
	 viewBox="0 0 200 75" style="enable-background:new 0 0 200 75;" xml:space="preserve">
<style type="text/css">
	.st0{fill:#1C3657;}
</style>
<path class="st0" d="M81.6,30c0.6,0,1.2-0.1,1.8,0c0.9,0.2,1.8,0.6,2.7,0.9c0.6,0.3,1.3,0.6,1.9,0.9c0.5,0.2,1.1,0.4,1.6,0.6
	c0,0.1,0,0.1,0,0.2c-0.6,0-1.3-0.1-1.9,0c-0.6,0.1-1.2,0.3-1.6,0.6c-1.8,1.3-3.5,2.7-5.5,3.7c-1.7,0.8-3.5,1.3-5.4,1.3
	c-2.1,0-4.3-0.2-6.4-0.2c-2.2,0-4.4,0.3-6.6,0.4c-0.2,0-0.4,0.1-0.6,0c-0.3-0.1-0.5-0.3-0.1-0.6c0.4-0.3,0.8-0.7,1.3-0.9
	c1.9-0.9,3.8-1.9,5.7-2.8c1.2-0.6,1.3-0.8,0.9-2c-1.3-4.2-4-7.2-7.5-9.6c-4.1-2.7-8.6-4.3-13.3-5.5c-1.1-0.3-2.3-0.5-3.4-0.8
	c-0.5-0.2-1-0.5-1.6-0.9c0.3-0.1,0.3-0.2,0.4-0.2c5.8,0,11.6,0.2,17.4,1.2c2,0.4,4,0.9,5.9,1.9c1.3,0.7,2.2,1.7,2.9,2.8
	c1.4,2,2.7,4,4.1,6c0.6,0.8,1.3,1.6,2.1,2.2c1,0.8,1.7,0.6,2.5-0.4c3.9-4.7,8.9-7.7,14.8-9c2.1-0.5,4.4-0.6,6.6-0.9
	c0.1,0,0.3,0,0.4,0.1c-7.5,1.4-13.9,4.7-18.8,10.7C81.5,29.9,81.6,29.9,81.6,30z"/>
<path class="st0" d="M65.6,56.5c0,0.9-0.4,1.6-1.3,1.9c-1.1,0.4-2.2,0.7-3.2,0c-0.6-0.4-0.8-1.1-0.6-1.8c0.1-0.3,0.2-0.5,0.4-0.9
	c-0.9-0.4-1.6-1-2-1.9c-1.4-3.4,1.3-8.4,4.9-9c2.8-0.5,4.7,1.2,4.6,4c-0.1,2.1-0.7,3.9-2.2,5.4c-0.8,0.9-1.8,1.4-3,1.6
	c-0.5,0.1-0.8,0.3-0.7,0.8c0.1,0.5,0.5,0.7,0.9,0.6C64.1,57,64.8,56.8,65.6,56.5z M60.8,52c0.1,0.9,0.1,1.7,1,2.1
	c0.8,0.3,1.7,0.1,2.4-0.7c1.3-1.6,1.8-3.5,1.6-5.5c-0.1-1.2-1.1-1.7-2.2-1.3c-0.5,0.2-1,0.6-1.4,1.1C61.3,48.9,61,50.5,60.8,52z"/>
<path class="st0" d="M42.8,44.9c-0.3,1.5-0.6,3-0.9,4.5c1.3,0,2.5,0,3.7,0c0.1,0,0.3-0.3,0.4-0.5c0.3-1.1,0.5-2.2,0.7-3.4
	c0.1-0.5,0.3-0.8,0.8-0.7c0.5,0.1,1,0,1.6,0c-0.8,3.7-1.5,7.3-2.3,10.9c-0.8,0-1.5,0-2.3,0c0.3-1.5,0.6-2.9,0.9-4.5
	c-1.3,0-2.5,0-3.7,0c-0.1,0-0.3,0.3-0.4,0.5c-0.3,1.3-0.6,2.6-0.8,3.9c-0.8,0-1.5,0-2.3,0c0.3-1.3,0.5-2.5,0.8-3.7
	c0.4-2.1,0.9-4.2,1.3-6.4c0.1-0.6,0.3-0.9,1-0.8C41.7,44.9,42.2,44.9,42.8,44.9z"/>
<path class="st0" d="M141.9,44.9c0.7,0,1.2,0,1.9,0c-0.2,1-0.4,2-0.6,2.9c-0.5,2.4-1,4.9-1.6,7.3c-0.1,0.2-0.3,0.6-0.4,0.6
	c-0.4,0-1,0.3-1.3-0.4c-1.1-2.2-2.3-4.3-3.5-6.4c0,0-0.1,0-0.2-0.1c-0.5,2.3-1,4.6-1.5,6.9c-0.6,0-1.2,0-1.9,0
	c0.8-3.6,1.5-7.2,2.3-10.8c1.3-0.2,1.3-0.2,1.9,0.9c1.1,2,2.2,4,3.4,6.1C140.9,49.5,141.4,47.2,141.9,44.9z"/>
<path class="st0" d="M111.9,55.8c-0.8,0-1.5,0-2.4,0c-0.1-0.5-0.2-1.1-0.2-1.6c0-0.4-0.2-0.6-0.6-0.6c-1,0-2,0-3,0
	c-0.2,0-0.5,0.3-0.7,0.4c0,0-0.1,0.1-0.1,0.1c-0.4,1.6-1.5,2-3.1,1.6c1.6-3,3.3-6,4.9-9.2c-0.4,0-0.7-0.1-1.2-0.1
	c0.1-0.5,0.2-1,0.3-1.5c1.5,0,2.9,0,4.4,0C110.8,48.5,111.4,52.1,111.9,55.8z M108.5,47.2c-0.9,1.7-1.6,3.2-2.5,4.8c1.1,0,2,0,3,0
	C108.9,50.4,108.7,48.9,108.5,47.2z"/>
<path class="st0" d="M125.9,44.9c1.4,0,2.7,0,4,0c0.2,0,0.4,0.2,0.4,0.4c0.5,3.4,1,6.9,1.5,10.3c0,0,0,0.1,0,0.2c-0.7,0-1.5,0-2.3,0
	c-0.1-0.5-0.2-1.1-0.2-1.7c0-0.4-0.2-0.5-0.6-0.5c-1,0-2.1,0-3.1,0c-0.2,0-0.5,0.3-0.7,0.4c0,0,0,0,0,0.1c-0.4,1.6-1.5,2.1-3.1,1.6
	c1.6-3,3.2-6,4.9-9.1c-0.4,0-0.8-0.1-1.2-0.1C125.7,45.9,125.8,45.4,125.9,44.9z M128.5,47.1c-0.8,1.7-1.6,3.2-2.5,4.8
	c1.1,0,2,0,3,0C128.8,50.4,128.6,48.8,128.5,47.1z"/>
<path class="st0" d="M71,44.9c0.9,0,1.6,0,2.4,0c-0.4,1.7-0.7,3.3-1.1,5c-0.2,0.9-0.4,1.8-0.5,2.7c-0.1,1.1,0.6,1.7,1.7,1.6
	c1.1-0.1,1.8-0.8,2.1-2.1c0.4-1.7,0.7-3.5,1.1-5.2c0.1-0.6,0.3-1.3,0.4-1.9c0.8,0,1.5,0,2.3,0c-0.1,0.5-0.2,0.9-0.3,1.3
	c-0.5,2.1-0.8,4.2-1.4,6.2c-0.8,3-4,4.4-6.8,3.1C70,55,69.3,54.1,69.5,53C69.9,50.3,70.5,47.6,71,44.9z"/>
<path class="st0" d="M88.8,44.9c-0.1,0.5-0.2,1-0.3,1.6c-1,0-2.1,0-3.1,0c-1.5,0-1.5,0-1.8,1.4c-0.1,0.5-0.2,0.9-0.3,1.5
	c1.2,0,2.4,0,3.7,0c-0.1,0.5-0.1,0.9-0.3,1.3c0,0.1-0.3,0.3-0.5,0.3c-0.9,0-1.8,0-2.7,0c-0.2,0-0.5,0.2-0.6,0.3
	c-0.2,0.9-0.4,1.8-0.6,2.8c1.7,0,3.2,0,4.9,0c-0.1,0.6-0.2,1.1-0.3,1.6c-2.4,0-4.8,0-7.3,0c0.8-3.6,1.5-7.2,2.3-10.8
	C84.2,44.9,86.5,44.9,88.8,44.9z"/>
<path class="st0" d="M52.6,51c-0.2,1-0.4,2-0.7,3.1c1.7,0,3.3,0,4.9,0c-0.1,0.5-0.1,0.9-0.2,1.3c0,0.1-0.3,0.3-0.4,0.3
	c-2.3,0-4.6,0-6.9,0c0.2-1.1,0.4-2,0.6-3c0.5-2.4,1.1-4.9,1.5-7.3c0.1-0.5,0.3-0.6,0.8-0.6c2.1,0,4.1,0,6.1,0c0,0.1,0.1,0.1,0.1,0.2
	c-0.2,1.4-0.2,1.4-1.6,1.4c-0.9,0-1.8,0-2.7,0c-0.4,0-0.6,0.1-0.7,0.5c-0.1,0.8-0.3,1.6-0.5,2.4c1.3,0,2.4,0,3.7,0
	c-0.1,0.4-0.2,0.8-0.2,1.1c0,0.4-0.3,0.5-0.6,0.5C54.8,51,53.7,51,52.6,51z"/>
<path class="st0" d="M94.9,44.9c0.9,0,1.6,0,2.5,0c0.2,2.6,0.4,5.3,0.7,7.9c0.3-0.7,0.6-1.3,1-1.9c0.9-1.8,1.9-3.7,2.8-5.5
	c0.2-0.4,0.4-0.6,0.9-0.6c0.6,0,1.1,0,1.8,0c-0.4,0.7-0.7,1.3-1.1,2c-1.5,2.8-3.1,5.6-4.6,8.4c-0.2,0.4-0.5,0.6-1,0.5
	c-0.6,0-1.1,0-1.8,0C95.7,52.1,95.3,48.6,94.9,44.9z"/>
<path class="st0" d="M163.1,44.9c-0.1,0.5-0.2,1-0.3,1.4c0,0.1-0.4,0.2-0.6,0.2c-1.1,0-2.2,0-3.3,0c-0.5,0-0.8,0.1-0.9,0.7
	c-0.1,0.7-0.3,1.4-0.5,2.2c1.2,0,2.4,0,3.7,0c-0.1,0.6-0.2,1.1-0.3,1.6c-1.1,0-2.1,0-3.1,0c-0.5,0-0.8,0.1-0.8,0.6
	c-0.1,0.8-0.3,1.6-0.5,2.5c1.7,0,3.2,0,4.8,0c0,0.2,0.1,0.2,0,0.3c-0.2,1.4-0.2,1.4-1.6,1.4c-2,0-3.9,0-6,0c0.2-1.1,0.4-2.1,0.7-3.2
	c0.5-2.4,1-4.7,1.5-7.1c0.1-0.5,0.3-0.6,0.8-0.6C158.8,44.9,160.9,44.9,163.1,44.9z"/>
<path class="st0" d="M171.4,45.2c-0.1,0.6-0.2,1-0.3,1.6c-0.5-0.1-1-0.4-1.5-0.4c-0.8,0-1.6,0-2.3,0.2c-0.4,0.1-0.8,0.7-0.8,1.1
	c0,0.3,0.4,0.8,0.7,1.1c0.6,0.4,1.3,0.7,1.9,1c1.2,0.6,1.8,1.4,1.7,2.8c-0.1,1.4-0.8,2.3-2.1,2.8c-1.8,0.8-3.7,0.6-5.5-0.1
	c-0.2-0.1-0.3-0.4-0.3-0.6c0-0.4,0.1-0.8,0.2-1.2c0.8,0.3,1.6,0.6,2.4,0.7c0.7,0.1,1.5,0,2.1-0.3c0.4-0.1,0.7-0.7,0.8-1.1
	c0.1-0.5-0.3-0.9-0.8-1.1c-0.6-0.3-1.2-0.6-1.8-0.8c-1.1-0.5-1.9-1.3-1.8-2.6c0-1.3,0.6-2.3,1.8-2.9
	C167.5,44.5,169.4,44.6,171.4,45.2z"/>
<path class="st0" d="M37.9,48.2c-0.2,0-0.4,0-0.6,0c-0.5,0-1.1,0-1.7,0c0-0.1,0-0.2,0-0.3c0-0.5,0-1.1-0.6-1.4
	c-0.6-0.3-1.2-0.1-1.7,0.2c-1.2,0.9-1.7,2.2-2,3.6c-0.1,0.6-0.2,1.1-0.2,1.7c0,1.4,0.8,2.2,2.2,2.1c0.8,0,1.6-0.3,2.5-0.5
	c0.3-0.1,0.6-0.3,0.9-0.4c0,1.5-0.2,1.8-1.6,2.3c-1.1,0.4-2.2,0.5-3.4,0.3c-1.7-0.3-2.8-1.4-3-3.2c-0.2-2.6,0.6-4.9,2.6-6.6
	c1.3-1.1,2.8-1.5,4.5-1.1C37.3,45.2,38.1,46.5,37.9,48.2z"/>
<path class="st0" d="M122.5,48.2c-0.7,0-1.5,0-2.3,0c0-0.1,0-0.2,0-0.3c-0.1-1.3-1-1.9-2.2-1.2c-0.5,0.3-0.9,0.7-1.2,1.1
	c-0.8,1.2-1.2,2.6-1.2,4c0,1.6,0.9,2.5,2.5,2.3c0.9-0.1,1.7-0.5,2.6-0.7c0.2-0.1,0.4-0.2,0.6-0.3c-0.1,0.5-0.2,1-0.3,1.4
	c-0.1,0.2-0.2,0.4-0.4,0.5c-1.5,0.7-3.1,1.1-4.7,0.6c-1.5-0.4-2.4-1.4-2.5-2.9c-0.3-2.7,0.5-5,2.5-6.9c1.4-1.3,3.1-1.6,4.9-1
	C122.1,45.5,122.9,46.9,122.5,48.2z"/>
<path class="st0" d="M153.5,48.2c-0.7,0-1.5,0-2.2,0c0-0.1,0-0.2,0-0.3c-0.1-1.4-1.1-2-2.3-1.1c-0.5,0.4-1.1,1-1.3,1.6
	c-0.4,1-0.8,2.2-0.9,3.3c-0.2,1.8,1,2.8,2.7,2.5c1-0.2,1.9-0.5,2.8-0.8c-0.1,0.4-0.1,0.8-0.3,1.3c0,0.2-0.2,0.4-0.3,0.5
	c-1.6,0.8-3.2,1.1-4.9,0.6c-1.4-0.4-2.2-1.4-2.4-2.9c-0.3-3,0.6-5.5,3.1-7.3c1.2-0.9,2.6-1.1,4.1-0.7
	C153.1,45.3,153.9,46.8,153.5,48.2z"/>
<path class="st0" d="M88.7,52.3c0.1-0.5,0.2-1,0.3-1.5c1.5,0,2.9,0,4.3,0c0,0.1,0.1,0.1,0.1,0.1c-0.3,1.5-0.3,1.5-1.8,1.5
	c-0.9,0-1.8,0-2.7,0C89,52.4,88.9,52.4,88.7,52.3z"/>
<path class="st0" d="M53.7,42.9c0.1-0.3,0.1-0.8,0.3-1c0.3-0.2,0.9-0.3,1.1-0.1c0.6,0.4,1.1,0.9,1.5,1.4c0.1,0.1,0,0.4-0.1,0.8
	c-0.9-0.7-1.6-1.2-2.7-1C53.8,43,53.7,42.9,53.7,42.9z"/>
</svg>
