<?xml version="1.0" encoding="utf-8"?>
<!-- Generator: Adobe Illustrator 25.2.3, SVG Export Plug-In . SVG Version: 6.00 Build 0)  -->
<svg version="1.1" id="Calque_1" xmlns="http://www.w3.org/2000/svg" xmlns:xlink="http://www.w3.org/1999/xlink" x="0px" y="0px"
	 viewBox="0 0 700 700" style="enable-background:new 0 0 700 700;" xml:space="preserve">
<style type="text/css">
	.st0{fill:#FFFCD3;}
	.st1{fill:#1C3657;}
	.st2{fill:#EBB834;}
	.st3{fill:#FF743D;}
	.st4{fill:#EDEDED;}
	.st5{fill:#FFBD00;}
</style>
<g>
	<g>
		<circle class="st0" cx="356.3" cy="357.6" r="229"/>
	</g>
	<g>
		<circle class="st1" cx="356.3" cy="357.6" r="206.5"/>
	</g>
	<g>
		<path class="st2" d="M372.6,294.7"/>
	</g>
	<g>
		<g>
			<path class="st3" d="M323.8,481.5c0,0,59.3,0,69.6,0c10.3,0,15.3-6.2,15.5-17.5s0-40.1,0-40.1H308.4V465
				C308.4,465,308.4,481.5,323.8,481.5z"/>
		</g>
		<g>
			<path class="st4" d="M358.9,238.5c37.3,0,55.3,3.9,55.3,3.9s14.7-1.2,15.2,17.8c0.5,19-2.5,149.3-16.9,165.3
				c-14.3,15.8-92.1,14-107.6,0.2c-15.5-13.8-20.4-152.6-20.4-164.6c0-12,5.2-18.2,16-18.7C311.3,242,321.6,238.5,358.9,238.5z"/>
		</g>
		<g>
			<g>
				<circle class="st5" cx="360.7" cy="315.4" r="22.4"/>
			</g>
			<g>
				<polygon class="st5" points="379.3,298.4 389.1,297.8 393.7,283.7 379.7,288.2 				"/>
			</g>
			<g>
				<polygon class="st5" points="385.8,315.6 393.2,322.1 406.4,315.4 393.3,308.7 				"/>
			</g>
			<g>
				<polygon class="st5" points="378.5,334.4 379,344.2 393.2,348.8 388.6,334.8 				"/>
			</g>
			<g>
				<polygon class="st5" points="361.3,290.8 368,283.6 361.6,270.2 354.6,283.2 				"/>
			</g>
			<g>
				<polygon class="st5" points="342.1,334.1 332.3,334.7 327.7,348.8 341.7,344.3 				"/>
			</g>
			<g>
				<polygon class="st5" points="335.6,316.9 328.2,310.4 314.9,317.1 328.1,323.8 				"/>
			</g>
			<g>
				<polygon class="st5" points="342.9,298.1 342.3,288.3 328.2,283.7 332.8,297.7 				"/>
			</g>
			<g>
				<polygon class="st5" points="360.1,341.7 353.4,348.9 359.8,362.3 366.8,349.3 				"/>
			</g>
		</g>
	</g>
</g>
</svg>
