<?xml version="1.0" encoding="utf-8"?>
<!-- Generator: Adobe Illustrator 25.2.3, SVG Export Plug-In . SVG Version: 6.00 Build 0)  -->
<svg version="1.1" id="Calque_1" xmlns="http://www.w3.org/2000/svg" xmlns:xlink="http://www.w3.org/1999/xlink" x="0px" y="0px"
	 viewBox="0 0 700 700" style="enable-background:new 0 0 700 700;" xml:space="preserve">
<style type="text/css">
	.st0{fill:#1C3657;}
</style>
<path class="st0" d="M316.2,91.4c9.8,0,17.7-7.9,17.7-17.7c0-9.8-8-17.7-17.7-17.7c-9.8,0-17.7,8-17.7,17.7
	C298.5,83.5,306.4,91.4,316.2,91.4z M316.2,62.4c6.2,0,11.3,5.1,11.3,11.3S322.4,85,316.2,85c-6.2,0-11.3-5.1-11.3-11.3
	C304.9,67.5,310,62.4,316.2,62.4z"/>
<path class="st0" d="M215.3,128.8c0.6,0,1.1,0,1.7-0.2l19.5-3.5L273,120c4-0.7,7,0.1,9.2,2.6c5.4,6,5.2,20,4.7,24.8l0,0.3
	c-0.3,25.7-17,44.1-17.1,44.3l-0.2,0.3c-11.9,15.9-4.9,25.5-4.5,25.9l34.3,41.3l0.7-7.8c1-11.1,1.1-18.9,0.9-23.4l0-1.1l-11.7-14.1
	c-0.6-1.2-0.6-2.5-0.2-4.2c1.6-5.5,8.1-11.6,11.5-14.3c4.7,7.9,4.2,25.2,3.9,37.1c-0.1,3-0.2,5.9-0.2,8.4c-0.1,7.5-0.7,16-1.8,25.3
	l-0.2,1.3l0.8,1c1.3,1.6,3.8,2.3,7.9,3l0.4,0.1c0.5,0.1,1,0.1,1.4,0.1c4.6,0,8.6-3.7,9.5-8.8l6.2-35.7c0.1-0.4,0.1-0.7,0.1-1.1
	l16.9-95.9l35.4,7.7l26.8,7.9c1.6,0.4,3,0.7,4.3,0.7c3.9,0,6.7-1.9,7.7-5.3c0.4-1,0.7-2.1,0.6-3.2c-0.2-3.3-1.5-5.4-4.4-7.5
	c-19.8-15.1-98.4-29.7-101.7-30.4l-0.1,0c-7.7-1.1-15.6-1.6-23.6-1.6c-18.5,0-33,2.9-40,4.3c-0.4,0-0.8,0.1-1.1,0.1l-35.7,6.3
	c-2.8,0.5-5.1,2.2-6.6,4.8c-1.3,2.2-1.7,4.9-1.3,7.3C206.8,125.4,210.7,128.8,215.3,128.8L215.3,128.8z M212.8,116.4
	c0.4-0.6,1-1.4,2.1-1.6l35.7-6.3c0.2,0,0.4-0.1,0.6-0.1l0.4-0.1c6.8-1.4,20.9-4.3,39-4.3c7.6,0,15.3,0.5,22.6,1.6
	c2.7,0.5,80.8,15.2,99,29.2l0.2,0.1c1.6,1.1,1.6,1.5,1.7,2.6c0,0.1-0.1,0.3-0.2,0.8l-0.1,0.2c-0.1,0.4-0.2,0.8-1.5,0.8
	c-0.7,0-1.6-0.1-2.5-0.4l-26.9-7.9l-42.3-9.2l-18.1,102.7l0,0.3c0,0.2,0,0.4-0.1,0.6l-6.2,35.7c-0.4,2.2-1.9,3.5-3.1,3.5
	c-0.1,0-0.2,0-0.3,0l-0.5-0.1c-1.4-0.2-2.3-0.4-3-0.6c1-8.6,1.5-16.4,1.6-23.4h0c0-2.5,0.1-5.4,0.2-8.5c0.4-15.2,0.9-33.9-6.4-42.8
	l0-2h-3.2c-3.1,0-12.6,9-16.3,15.3c-3.9,6.7-2.8,11.4-1.2,14.2l10.8,13.1c0.1,3.2,0,7.7-0.3,13.7l-24.1-28.9
	c-0.4-0.7-3.9-6.8,4.5-18c1.7-1.9,18.4-21,18.7-48.3c0.2-2.1,1.8-20.6-6.3-29.7c-3-3.3-6.9-5-11.5-5c-1.2,0-2.4,0.1-3.6,0.3
	l-36.5,5.2l-19.6,3.5c-2.1,0.4-3.4-1.3-3.6-2.9C212.1,118.5,212.3,117.4,212.8,116.4L212.8,116.4z"/>
<path class="st0" d="M531,154.8c9.8,0,17.7-8,17.7-17.7c0-9.8-8-17.7-17.7-17.7c-9.8,0-17.7,7.9-17.7,17.7
	C513.3,146.9,521.3,154.8,531,154.8z M531,125.8c6.2,0,11.3,5.1,11.3,11.3c0,6.2-5.1,11.3-11.3,11.3c-6.2,0-11.3-5.1-11.3-11.3
	C519.8,130.9,524.8,125.8,531,125.8z"/>
<path class="st0" d="M577.8,339.6c9.8,0,17.7-8,17.7-17.7c0-9.8-8-17.7-17.7-17.7c-9.8,0-17.7,8-17.7,17.7
	C560.1,331.7,568,339.6,577.8,339.6z M577.8,310.7c6.2,0,11.3,5.1,11.3,11.3c0,6.2-5.1,11.3-11.3,11.3c-6.2,0-11.3-5-11.3-11.3
	C566.5,315.7,571.6,310.7,577.8,310.7z"/>
<path class="st0" d="M361.9,308.6c0,9.8,8,17.7,17.7,17.7c9.8,0,17.7-8,17.7-17.7s-8-17.7-17.7-17.7
	C369.9,290.9,361.9,298.9,361.9,308.6z M390.9,308.6c0,6.2-5.1,11.3-11.3,11.3c-6.2,0-11.3-5.1-11.3-11.3c0-6.2,5.1-11.3,11.3-11.3
	C385.9,297.4,390.9,302.4,390.9,308.6z"/>
<path class="st0" d="M182.6,182.5c0,9.8,8,17.7,17.7,17.7c9.8,0,17.7-7.9,17.7-17.7c0-9.8-8-17.7-17.7-17.7
	C190.5,164.8,182.6,172.7,182.6,182.5z M200.3,171.2c6.2,0,11.3,5.1,11.3,11.3c0,6.2-5.1,11.3-11.3,11.3s-11.3-5.1-11.3-11.3
	C189,176.3,194.1,171.2,200.3,171.2L200.3,171.2z"/>
<path class="st0" d="M586.4,256.4c-6.1-0.5-11.3,3.9-11.8,9.9l-3.2,35.3l4.2-0.8c4.5-0.8,9,0,12.9,2.2l0.6,0.3l4,0.3l3.2-35.3
	C596.8,262.3,592.4,257,586.4,256.4L586.4,256.4z M587.3,295.4c-2.7-0.9-5.5-1.4-8.3-1.4c-0.1,0-0.3,0-0.5,0l2.5-27.2
	c0.2-2.4,2.4-4.2,4.8-4c2.4,0.2,4.2,2.4,4,4.8L587.3,295.4z"/>
<path class="st0" d="M539,435c6.1-2.5,11.4-4.8,15.7-6.7l1.6-0.8l0,0c2.5-1.1,4.7-2.1,6.4-2.9v0l2.8-1.3l0.5-0.2
	c24.8-13,22-52.3,21.7-55.4c-0.1-10.2-2.8-17.7-7.9-22.3c-4.4-3.9-9.5-4.8-13-4.8c-2,0-3.3,0.3-3.5,0.3c-7.8,1.7-13.9,2.9-15.3,3.1
	h-31.2l-23.7,0.4c-2.9,0-5.6,1.2-7.7,3.3c-2,2.1-3.1,4.8-3.1,7.7c0.1,5.9,4.9,10.8,11,10.8l31.6-0.3h17.9c2.1,0,3.7,0.6,4.9,1.8
	c2.3,2.5,2.6,7.1,2.5,8.7l0,0.2v0.2c0.6,17.8-31.8,39.5-44.2,46.3c-19.1,9.5-19.9,22.6-19.9,23.1v10.9l0.1,2.9h0.1l0.6,29.5
	c0.1,5.9,5,10.6,10.9,10.6v0h0.2c2.9-0.1,5.6-1.2,7.6-3.3c2-2.1,3.1-4.8,3-7.8l-0.6-28.8c3.1-15.8,18.1-20.7,18.8-20.9
	c2-0.6,4.5-1.4,7.4-2.5l0,0.2L539,435z M524.8,433.2c-0.8,0.3-19.6,6.2-23.3,26.2l-0.1,0.3l0.6,29.5c0,1.2-0.4,2.3-1.2,3.2
	c-0.8,0.9-1.9,1.3-3.1,1.4h-0.1c-2.4,0-4.4-1.9-4.4-4.3l-0.7-32.3l-0.1-1.7h0l0-9c0.1-0.7,1.4-10.2,16.4-17.7
	c2-1.1,48.4-26.7,47.7-52.1c0.1-1.4,0.2-8.6-4.2-13.3c-2.4-2.5-5.7-3.9-9.6-3.9h-18l-31.7,0.3c-2.4,0-4.4-2-4.4-4.4
	c0-1.2,0.4-2.3,1.3-3.1c0.8-0.8,1.9-1.3,3.2-1.3l23.7-0.4h31.4l0.6-0.1c0.1,0,6.9-1.3,15.8-3.2c0,0,0.9-0.2,2.2-0.2
	c12.4,0,14.4,13,14.5,20.8l0,0.3c0,0.4,3,36.1-16.7,48.3l-2.3,1.2c-1.5,0.7-5.4,2.5-10.2,4.7l-1.6,0.8l0,0
	c-3.1,1.3-6.6,2.8-10.5,4.5l-3.4,1.4C531.7,430.9,527.7,432.3,524.8,433.2L524.8,433.2z"/>
<path class="st0" d="M567.7,456.1c-7.3-8.7-8.7-16.9-8.6-22.3l0.1-5l-4.6,2c-4.3,1.9-9.4,4-15.1,6.4l-2.2,0.9l0.2,2.4
	c1.2,13.4,10.1,25.4,15.3,31.3l24.5,22.9c2,1.9,4.7,2.9,7.4,2.9c3.1,0,6.1-1.3,8.2-3.6c2-2.2,3-5,2.9-7.9c-0.1-2.9-1.4-5.7-3.6-7.6
	L567.7,456.1z M588.1,489.5c-0.9,1-2.1,1.5-3.4,1.5c-1.2,0-2.3-0.4-3.1-1.2l-23.8-22.1l-0.2-0.2c-3.5-4-11.5-14.1-13.4-25.3
	c3.1-1.3,6-2.5,8.7-3.6c0.7,6,3.2,13.7,9.8,21.6l25.1,22.9c0.9,0.8,1.4,1.9,1.5,3.2C589.4,487.5,589,488.6,588.1,489.5L588.1,489.5z
	"/>
<path class="st0" d="M448.6,254.5c-0.8,0.5-6.2,3.6-10.7,10.2c-4.3,6.4-8.7,17.6-5.1,34.3l2.1,13.8c0.9,5.3,5.4,9.2,10.7,9.2
	c0.6,0,1.2-0.1,1.7-0.1c5.9-1,9.9-6.6,9-12.4l-1.7-11.4c0-0.2-2-15.7,11-24.9l28.6-19c-0.3,7.1-2.2,19.7-10.6,30.6
	c-1.1,1.3-9.8,11.5-10.3,27.1l0,0c-0.1,1.9,0,4,0.1,6.1l0.1,6.9c0.2,5.9,4.9,10.6,10.9,10.6v0h0.3c2.9-0.1,5.6-1.3,7.6-3.4
	c2-2.1,3.1-4.9,3-7.7l-0.1-4.3h0c0-0.7-0.1-1.1-0.1-1.4l-0.1-4.9c0.8-6.4,5.2-19.5,25.8-35.7c2.5-1.4,16-10.4,17-40.7l1.7-42.8
	c7.1,4.6,21.8,16.4,33,41.1l2.4,9.8c1.2,4.9,5.5,8.3,10.6,8.3c0.9,0,1.7-0.1,2.5-0.3c2.8-0.7,5.2-2.4,6.7-4.9c1.5-2.5,2-5.4,1.3-8.2
	l-2.9-11.9c-0.1-0.6-0.3-1.3-0.5-2l-1.2-5l-0.1-0.3c-0.2-0.7-0.4-1.2-0.7-1.9c-0.2-0.6-0.5-1.2-0.8-2.1l-0.2-0.5
	c-0.5-0.9-1-1.8-1.3-2.8l-0.2-0.5c-0.2-0.4-0.4-0.8-0.6-1.1c-0.4-0.8-0.7-1.5-1.1-2.3c0-0.1,0-0.1-0.1-0.2l-0.6-1.2
	c-9.3-18-29.3-42.2-71.9-55.3l-42.2-12.7l-25.2-8.2c-1.1-0.4-2.2-0.5-3.4-0.5c-4.7,0-8.9,3-10.3,7.5c-0.9,2.8-0.7,5.7,0.7,8.3
	c1.3,2.6,3.6,4.5,6.3,5.4l30.7,9.9c2.8,1.4,31.2,16.7,14,55.7C483.7,220.5,472.1,240.4,448.6,254.5L448.6,254.5z M473.2,157.2
	l-31.3-10.2c-1.1-0.4-2-1.1-2.6-2.2c-0.5-1.1-0.6-2.3-0.3-3.4c0.6-1.8,2.3-3.1,4.2-3.1c0.5,0,0.9,0.1,1.4,0.2l25.2,8.2l42.2,12.7
	c40.5,12.4,59.4,35.2,68.1,52.1l0.4,0.7c0.2,0.5,0.5,0.8,0.8,1.1c-0.3-0.3-0.5-0.6-0.6-0.9l0.1,0.2c0.4,0.8,0.7,1.5,1.1,2.3
	c0.2,0.5,0.5,0.9,0.7,1.4c0.4,1.1,0.9,2.2,1.5,3.2c0.3,0.8,0.5,1.4,0.7,2c0.2,0.5,0.4,1,0.5,1.5l1.2,4.9c0.2,0.7,0.3,1.3,0.4,1.9
	l2.9,11.9c0.3,1.2,0.1,2.3-0.5,3.3c-0.6,1-1.6,1.7-2.7,2c-0.3,0.1-0.7,0.1-1,0.1c-2,0-3.8-1.4-4.3-3.4l-2.4-10.1l-0.2-0.6
	c-16.4-36.5-39.7-46.7-40.7-47.1l-4.3-1.8l-2.1,52.7c-1,28.4-13.7,35.3-13.7,35.3l-0.3,0.2l-0.3,0.2c-21.7,17-27.5,31.4-28.5,40.4
	l0,0.2l0.2,11.1c0,1.2-0.4,2.3-1.2,3.2c-0.8,0.9-1.9,1.3-3.1,1.4h-0.1c-2.4,0-4.3-1.9-4.4-4.3l-0.1-6.9l0-0.1
	c-0.1-1.9-0.1-3.8-0.1-5.5v-0.2c0.5-13.8,8.7-22.9,8.7-23l0.2-0.2c14-18.3,12-40,11.9-40.9l-0.5-5.3L462,267.9
	c-16.2,11.5-13.8,30.3-13.7,31.1l1.7,11.5c0.4,2.4-1.2,4.7-3.7,5.1c-2.4,0.4-4.7-1.3-5.1-3.6l-2.1-13.9l0-0.2
	c-6-27.3,11.8-37.2,12.5-37.6l0.2-0.1c26-15.6,38-37.4,38.5-38.3l0.1-0.2C510.8,175.5,473.6,157.4,473.2,157.2L473.2,157.2z"/>
<path class="st0" d="M466.8,336.7h-25.8c-0.4,0-0.9,0-1.3,0.1c-18.9-0.1-36.1-0.2-40-0.2c-10.5-5.6-31.7-8.9-34.2-9.3
	c-9.5-2.9-35.3-27.5-47.8-39.5c-1-1.1-2.2-2.4-3.4-3.5l-18.9-17.6c-2-1.9-4.6-2.9-7.4-2.9c-3,0-5.9,1.3-8,3.5
	c-4.1,4.4-3.8,11.3,0.5,15.4l18.9,17.6c0.6,0.5,1.4,1.3,2.2,1.8l13.9,12.1c30.7,25.3,34,61,34,61.4l0,0.3
	c6.7,40.2,25,69.7,35.3,83.8c1.5,2.4,2.9,4.6,3.7,6l0.6,1l12.6,17.1c2,2.7,5.3,4.3,8.7,4.3c2.4,0,4.6-0.8,6.5-2.2
	c4.8-3.6,5.8-10.4,2.2-15.2l-12.3-16.7c-0.1-0.2-0.4-0.5-0.7-0.9c-1.1-1.5-3-4.1-4.2-5.6c-14.9-19.7-12.3-25.2-12-25.8l0.5-0.4
	c0.8-0.7,1.5-1,2.4-1c3.4,0,8,4.7,10.1,7.6l7.3,7.8c1.1,1.4,3.9,4.5,8.5,9.3c2.7,2.9,6.1,6.5,6.6,7.2l17,17.7c2,2,4.7,3.1,7.6,3.1
	c3,0,5.8-1.2,7.8-3.3c4.2-4.3,4.1-11.2-0.2-15.3l-15.9-16.4l-1.7-1.7c-42.4-39-38.1-69.9-36-77.8h62.9c6,0,10.9-4.9,10.9-10.9
	C477.7,341.6,472.8,336.7,466.8,336.7L466.8,336.7z M466.8,352h-67.4l-0.8,2c-0.7,1.6-15.7,38.6,36.9,87l1.6,1.5l15.9,16.4
	c1.8,1.7,1.8,4.5,0.1,6.3c-0.8,0.9-2,1.3-3.2,1.3c-1.1,0-2.2-0.4-3-1.2l-16.5-17.1c-0.8-1-2.8-3.2-6.9-7.6c-3.1-3.3-7.4-7.9-8.1-8.9
	l-7.3-7.8c-1.2-1.7-7.7-10.2-15.2-10.2c-2.3,0-4.5,0.8-6.3,2.3c-0.9,0.6-2.4,1.9-3.1,4.5c-1.7,6.5,2.9,16.8,13.4,30.7l0.1,0.1
	c1.1,1.3,3,3.9,4,5.3c0.3,0.5,0.6,0.8,0.7,1l12.4,16.7c1.5,2,1.1,4.7-0.9,6.2c-0.8,0.6-1.7,0.9-2.7,0.9c-1.4,0-2.7-0.6-3.5-1.7
	l-12.4-16.8l-0.5-0.8c-0.8-1.4-2.3-3.7-3.9-6.2l-0.1-0.2c-10-13.5-27.7-42.1-34.2-81c-0.3-3-4.1-39.1-36.2-65.6L305.7,297l-0.3-0.2
	c-0.4-0.3-1-0.8-1.6-1.4L285,277.9c-1.8-1.7-1.9-4.5-0.2-6.3c0.8-0.9,2-1.4,3.2-1.4c1.1,0,2.2,0.4,3,1.2l18.9,17.6
	c0.6,0.6,2.1,2,2.9,3l0.3,0.3c19.3,18.5,40.8,38.4,50.8,41.3l0.4,0.1c0.2,0,23.4,3.5,32.9,9l0.7,0.4l0.8,0c0,0,19.4,0.1,41.1,0.2
	l0.2,0l0.2,0c0.2,0,0.4-0.1,0.6-0.1h25.8c2.4,0,4.4,2,4.4,4.4C471.2,350,469.3,352,466.8,352L466.8,352z"/>
<path class="st0" d="M139,345.8l-2.5-5.3l-27.7,43.9l-14.9,22.7c-3.3,5-1.9,11.8,3.1,15.1c1.8,1.2,3.8,1.8,5.9,1.8
	c3.7,0,7.1-1.8,9.1-4.9l12.5-19.1l25.2-33.1l-1-1.8C145.6,359.3,142.3,352.8,139,345.8L139,345.8z M119.4,396.3l-12.7,19.3
	c-0.8,1.3-2.2,2-3.7,2c-0.9,0-1.7-0.3-2.4-0.7c-2.1-1.3-2.6-4.1-1.3-6.1l14.9-22.8l21.6-34.1c2.2,4.4,4.3,8.6,6.4,12.5L119.4,396.3z
	"/>
<path class="st0" d="M266.2,244.3l-7.3-4.7c-4.3-2.9-26.8-17.8-46.6-29.3c-12.4-7.2-22.6-8.7-29.1-8.7c-2.9,0-5.3,0.3-7.1,0.6
	c-2.3-15.5,3.1-33.7,8.3-46.8l13.9-25.5c2.9-5.3,0.9-11.9-4.4-14.8c-1.6-0.9-3.3-1.3-5-1.3c-3.8,0-7.3,2.2-9.3,5.7l-4.6,7.2
	c-24.5,34.7-25.6,67.6-25.6,69l0,0.6l0.2,0.6c6,16-7.9,71.7-13.8,91.8l0,0.2c-6.1,25.8,4.6,48,5.5,49.7l6.1,13.2l3.6,7.4l33.2,50.3
	l3.5,7.2c1.8,3.7,5.7,6.2,9.8,6.2c1.6,0,3.2-0.4,4.7-1.1c5.4-2.6,7.7-9.1,5.1-14.5L192,375.2l-0.1,0.1l-4.8-9.9l-0.2-0.3
	c-11.5-18.4-10.9-30-10.6-32.4c7.3-10.8,7-34.1,7-35.2v-0.3l-0.1-0.3c-3.5-15.1,13.9-49,22.6-63.9l37.9,22.4l10.4,7
	c1.8,1.2,3.9,1.8,6.1,1.8c3.6,0,7-1.8,9-4.8C272.6,254.4,271.3,247.7,266.2,244.3L266.2,244.3z M263.9,255.8c-0.8,1.2-2.2,2-3.7,2
	c-0.9,0-1.7-0.3-2.5-0.8l-10.4-7l-43.6-25.8l-1.7,2.7c-0.3,0.5-7.6,12.4-14.3,27c-9.2,19.9-12.8,34.7-10.8,44.1
	c0.1,6.7-0.9,24.4-6.2,31.5l-0.4,0.5l-0.2,0.6c-0.1,0.6-3.4,14.5,11.2,37.8l8.4,17.3l0.1-0.1l11.7,24.3c1.1,2.2,0.1,4.9-2.1,5.9
	c-0.6,0.3-1.2,0.4-1.9,0.4c-1.7,0-3.3-1-4-2.5l-3.6-7.6L156.7,356l-3.5-7.1l-6-13.1l-0.1-0.1c-0.1-0.2-10.6-21.4-5-45.2
	c0.4-1.3,5.5-19.3,9.8-39.4c5.8-27.7,7.2-46.4,4.1-55.8c0.3-4.4,2.7-34.2,24.4-64.9l4.8-7.5l0.1-0.2c1.2-2.2,3.6-3,5.6-1.9
	c2.1,1.2,2.9,3.9,1.8,6l-14,25.7l-0.2,0.3c-5.9,14.8-12.1,36.2-8.1,54.1l0.9,3.6l3.5-1.4c0,0,3.1-1.2,8.4-1.2
	c5.6,0,14.7,1.4,25.8,7.8c19.6,11.4,42,26.3,46.3,29.2l7.3,4.7C264.7,251,265.3,253.8,263.9,255.8L263.9,255.8z"/>
<polygon class="st0" points="202.6,416.3 202.6,406.3 173.5,347 173.5,333.2 177.6,319.9 180.3,300 180.6,284.9 197.2,239.1 
	205,229.7 256.2,259.4 266.8,259.1 267.7,250.6 259.4,243.7 197.4,207.7 173.5,204.9 174.5,173.7 190.9,136.5 198.3,122.7 
	185.9,116.7 161.9,155.2 152.4,194.6 154,211.7 145.9,268.3 136.2,305.9 148,346.6 194.3,419.6 "/>
<polygon class="st0" points="97.5,419.6 107.1,419.6 146.3,367.1 136.2,348.5 96.3,409.1 "/>
<polygon class="st0" points="204.2,168.3 215.8,182.9 203.6,196.9 189.7,193.2 187.1,176.2 "/>
<polygon class="st0" points="301.3,68.5 316.2,59.3 330.9,68.5 327.5,85 311.5,88.2 301.3,78.7 "/>
<polygon class="st0" points="212.2,125.8 277.1,116.7 288,125.8 288,158.7 277.1,190 264.6,206 277.1,228.5 296.9,249.2 
	298.5,229.8 286.7,213.5 290.4,200.2 301.3,191.4 309.1,212.8 307.1,249.2 306.8,265.9 313.2,268.3 323.3,257.6 333.3,200.2 
	342.9,130.1 345.6,125.8 414.1,142.7 417.4,135.2 370.4,113.8 307.8,101.1 233.1,105 209.6,110.4 "/>
<polygon class="st0" points="378.4,323.2 390.9,317.9 393.6,301 379.6,294 365.2,302.7 366.5,319.1 "/>
<polygon class="st0" points="576.7,334.5 589.3,329.2 591.9,312.3 578,305.3 563.6,314 564.9,330.5 "/>
<polygon class="st0" points="530,151.7 542.6,146.4 545.2,129.5 531.3,122.5 516.9,131.2 518.2,147.6 "/>
<polygon class="st0" points="540.9,440.8 554.9,434.7 563.6,453.3 581.4,474.3 591.9,486.3 589.1,493.7 579.7,493.7 551.6,468.1 "/>
<polygon class="st0" points="575.9,297.4 591.9,298.9 594.3,267.2 587.9,258.8 577.8,263.7 "/>
<polygon class="st0" points="498.1,496.5 505.7,489.6 505.7,456 518.4,440.2 575.1,412.9 584.2,384.4 583.9,354.4 571.4,344.2 
	546.9,347 488.7,348.1 485.9,357.6 497.5,362.4 548.8,365.1 553.8,378 548,392.6 530.7,409 493.5,436.1 490,443.7 489.7,486.3 
	493.8,496.5 "/>
<polygon class="st0" points="449.8,469.4 459.4,459.6 411.6,407.3 398.8,374.3 403.8,354.5 468,355.1 474.9,347 467.5,340.6 
	417.1,340 394.5,338 363.4,330.2 334.3,305.3 290.2,266.3 282.3,270.9 283.6,283.2 298.9,294.5 329.7,325.3 344.5,350 350,367.3 
	364.1,415.2 399.6,477.2 412.4,484.5 417.2,477.6 393.4,439.1 388.2,423.4 391.8,418.9 395.2,418.3 397.4,420.2 406.5,428.6 
	438.9,462.3 "/>
<polygon class="st0" points="485.3,331.9 492.6,323.3 493.3,303.7 522.5,273.1 534.9,249.8 536.5,189.2 557.8,204.6 573.3,230.3 
	581.6,250.2 590.9,248.6 590.9,232.4 572.4,193.4 537.1,166.8 482.3,146.3 440.6,134.8 435.3,144 451.4,152.7 481.8,166.3 
	490,185.5 491.6,202.2 480.6,231.4 439.6,266.3 433.9,285.9 438.7,316.1 450.3,317.5 453.7,286.9 463.2,270.9 474.1,267 491,251.9 
	497.6,253 492.5,276.2 478.1,302.2 477.7,324.4 485,331.9 "/>
</svg>
