<?xml version="1.0" encoding="utf-8"?>
<!-- Generator: Adobe Illustrator 25.2.3, SVG Export Plug-In . SVG Version: 6.00 Build 0)  -->
<svg version="1.1" id="Calque_1" xmlns="http://www.w3.org/2000/svg" xmlns:xlink="http://www.w3.org/1999/xlink" x="0px" y="0px"
	 viewBox="0 0 700 700" style="enable-background:new 0 0 700 700;" xml:space="preserve">
<style type="text/css">
	.st0{fill:#FFFCD3;}
	.st1{fill:#1C3657;}
	.st2{fill:#EDEDED;}
	.st3{fill:#74B2FB;}
</style>
<g>
	<circle class="st0" cx="356.3" cy="352" r="229"/>
</g>
<g>
	<circle class="st1" cx="356.3" cy="352" r="206.5"/>
</g>
<g>
	<path class="st2" d="M392.6,292.4h-80.7c-11.1,0-20.2,9-20.2,20.1v150.8c0,11.1,9,20.2,20.2,20.2h80.7c11.1,0,20.2-9,20.2-20.2
		V312.6C412.7,301.4,403.7,292.4,392.6,292.4L392.6,292.4z"/>
</g>
<g>
	<path class="st2" d="M392.6,240.7h-30.2v-20.2h-20.2v20.2h-30.2v31.6h80.7L392.6,240.7z"/>
</g>
<g>
	<path class="st3" d="M352.2,337.4c8.2,21.7,14.3,29.7,24.7,50.9c10.1,20.6-4.9,41.2-24.7,41.2c-19.8,0-34.8-20.7-24.7-41.2
		C337.9,367.1,343.7,359.1,352.2,337.4L352.2,337.4z"/>
</g>
</svg>
