<?xml version="1.0" encoding="utf-8"?>
<!-- Generator: Adobe Illustrator 25.2.3, SVG Export Plug-In . SVG Version: 6.00 Build 0)  -->
<svg version="1.1" id="Calque_1" xmlns="http://www.w3.org/2000/svg" xmlns:xlink="http://www.w3.org/1999/xlink" x="0px" y="0px"
	 viewBox="0 0 700 700" style="enable-background:new 0 0 700 700;" xml:space="preserve">
<style type="text/css">
	.st0{fill:#1C3657;}
</style>
<path class="st0" d="M553,361.9v-187c0-9.3-3.7-18.2-10.2-24.8c-6.6-6.6-15.5-10.2-24.8-10.2h-52.5v-17.5c0-6.3-3.3-12-8.8-15.2
	s-12.1-3.1-17.5,0s-8.8,8.9-8.8,15.2v17.5h-70v-17.5c0-6.3-3.3-12-8.8-15.2s-12.1-3.1-17.5,0s-8.8,8.9-8.8,15.2v17.5h-70v-17.5
	c0-6.3-3.3-12-8.8-15.2s-12.1-3.1-17.5,0s-8.8,8.9-8.8,15.2v17.5H168c-9.3,0-18.2,3.7-24.8,10.2c-6.6,6.6-10.2,15.5-10.2,24.8v262.5
	c0,9.3,3.7,18.2,10.2,24.8c6.6,6.6,15.5,10.2,24.8,10.2h210c0,29.4,10.5,57.8,29.6,80.1c19.2,22.3,45.7,36.9,74.7,41.3
	c29.1,4.3,58.7-1.9,83.5-17.6c24.8-15.7,43.2-39.8,51.8-67.9c8.6-28.1,6.7-58.3-5.1-85.2C600.7,396.2,579.5,374.5,553,361.9
	L553,361.9z M220.5,174.9v17.5c0,6.3,3.3,12,8.8,15.2s12.1,3.1,17.5,0s8.8-8.9,8.8-15.2v-17.5h70v17.5c0,6.3,3.3,12,8.8,15.2
	s12.1,3.1,17.5,0s8.8-8.9,8.8-15.2v-17.5h70v17.5c0,6.3,3.3,12,8.8,15.2s12.1,3.1,17.5,0s8.8-8.9,8.8-15.2v-17.5H518v52.5H168v-52.5
	L220.5,174.9z M168,437.4v-175h350v88.9c-29.1-4.4-58.8,1.8-83.6,17.7c-24.8,15.8-43,40.2-51.2,68.4H168z M500.5,559.9
	c-23.2,0-45.5-9.2-61.9-25.6c-16.4-16.4-25.6-38.7-25.6-61.9s9.2-45.5,25.6-61.9s38.7-25.6,61.9-25.6c23.2,0,45.5,9.2,61.9,25.6
	s25.6,38.7,25.6,61.9c0,23.2-9.3,45.4-25.7,61.8C545.9,550.7,523.7,559.9,500.5,559.9L500.5,559.9z M518,419.9v52.5
	c0,4.6-1.8,9.1-5.1,12.4l-24.7,24.7h0c-3.3,3.4-7.7,5.3-12.4,5.3c-4.7,0-9.2-1.8-12.5-5.1c-3.3-3.3-5.2-7.8-5.1-12.5
	c0-4.7,2-9.2,5.3-12.4l19.6-19.6v-45.3c0-6.3,3.3-12,8.8-15.2s12.1-3.1,17.5,0S518,413.7,518,419.9L518,419.9z M273,314.9
	c0,4.6-1.8,9.1-5.1,12.4s-7.7,5.1-12.4,5.1h-35c-6.3,0-12-3.3-15.2-8.8s-3.1-12.1,0-17.5s8.9-8.8,15.2-8.8h35
	c4.6,0,9.1,1.8,12.4,5.1C271.2,305.8,273,310.3,273,314.9z M273,384.9c0,4.6-1.8,9.1-5.1,12.4s-7.7,5.1-12.4,5.1h-35
	c-6.3,0-12-3.3-15.2-8.8s-3.1-12.1,0-17.5s8.9-8.8,15.2-8.8h35c4.6,0,9.1,1.8,12.4,5.1S273,380.3,273,384.9z M378,314.9
	c0,4.6-1.8,9.1-5.1,12.4s-7.7,5.1-12.4,5.1h-35c-6.3,0-12-3.3-15.2-8.8s-3.1-12.1,0-17.5s8.9-8.8,15.2-8.8h35
	c4.6,0,9.1,1.8,12.4,5.1C376.2,305.8,378,310.3,378,314.9z M378,384.9c0,4.6-1.8,9.1-5.1,12.4s-7.7,5.1-12.4,5.1h-35
	c-6.3,0-12-3.3-15.2-8.8s-3.1-12.1,0-17.5s8.9-8.8,15.2-8.8h35c4.6,0,9.1,1.8,12.4,5.1S378,380.3,378,384.9z M413,314.9
	c0-4.6,1.8-9.1,5.1-12.4c3.3-3.3,7.7-5.1,12.4-5.1h35c6.3,0,12,3.3,15.2,8.8s3.1,12.1,0,17.5s-8.9,8.8-15.2,8.8h-35
	c-4.6,0-9.1-1.8-12.4-5.1S413,319.6,413,314.9z"/>
</svg>
