<?xml version="1.0" encoding="utf-8"?>
<!-- Generator: Adobe Illustrator 25.2.3, SVG Export Plug-In . SVG Version: 6.00 Build 0)  -->
<svg version="1.1" id="Calque_1" xmlns="http://www.w3.org/2000/svg" xmlns:xlink="http://www.w3.org/1999/xlink" x="0px" y="0px"
	 viewBox="0 0 400 400" style="enable-background:new 0 0 400 400;" xml:space="preserve">
<style type="text/css">
	.st0{fill:#E56200;}
	.st1{opacity:0.6;fill:#FFFFFF;}
	.st2{fill:#FFFFFF;}
</style>
<g>
	<path class="st0" d="M216.2,284.9c0,0,72.7,51.5,88.1,53.7c17.4,2.5,26.4-8.7,24.4-23.3c-2-14.6-43-76.6-39.6-88.8
		s68.5-61.4,73.6-71.4c5.3-10.3,7.6-32.7-41.6-28.1s-60.8,15.5-70.6,5.2c-9.8-10.3-19.2-96.2-56.9-95.5
		c-37.7,0.7-24.8,94.6-41.8,107.7c-16.7,12.8-34.3,12.2-88.7,5.1s-41.2,45.8,2.5,55c24.3,5.1,65.1,14.1,69.4,35.3
		s-22.5,76.4-24.8,93.4c-2.4,17.4,29.7,30.8,51.4,9.3C183.3,321.2,216.2,284.9,216.2,284.9z"/>
	<g>
		<circle class="st1" cx="202.7" cy="115.7" r="8.8"/>
		<circle class="st1" cx="198.6" cy="78.9" r="6.5"/>
		<circle class="st1" cx="291.7" cy="168.8" r="8.8"/>
		<circle class="st1" cx="324.9" cy="152.5" r="6.5"/>
		<circle class="st1" cx="265.9" cy="274" r="8.8"/>
		<circle class="st1" cx="291.6" cy="300.7" r="6.5"/>
		<circle class="st1" cx="161.9" cy="283.7" r="8.8"/>
		<circle class="st1" cx="144.5" cy="316.4" r="6.5"/>
		<circle class="st1" cx="111.2" cy="186.7" r="8.8"/>
		<circle class="st1" cx="74.9" cy="179.3" r="6.5"/>
	</g>
	<g>
		<circle class="st2" cx="181.3" cy="194.5" r="24.2"/>
		<circle cx="193.8" cy="194.5" r="8.1"/>
	</g>
	<g>
		<circle class="st2" cx="235" cy="190" r="24.2"/>
		<circle cx="225.5" cy="192.1" r="8.1"/>
	</g>
	<path d="M236.6,226.6c0.9,0.2-10.6,18.6-27.4,17.6s-21.2-12.3-16.8-13.8c4.4-1.5,11.9,11.4,26.9,5
		C234.2,229.1,232.8,225.9,236.6,226.6z"/>
</g>
</svg>
