<?xml version="1.0" encoding="utf-8"?>
<!-- Generator: Adobe Illustrator 25.2.3, SVG Export Plug-In . SVG Version: 6.00 Build 0)  -->
<svg version="1.1" id="Calque_1" xmlns="http://www.w3.org/2000/svg" xmlns:xlink="http://www.w3.org/1999/xlink" x="0px" y="0px"
	 viewBox="0 0 700 700" style="enable-background:new 0 0 700 700;" xml:space="preserve">
<style type="text/css">
	.st0{fill:#1C3657;}
</style>
<path class="st0" d="M453.8,303.6c21,18.6,52.8,29.7,87.6,29.7c35.2,0,67.6-11.9,88.7-31v53.2c-12.2,19.1-44.8,30.1-90.6,30.1
	c-41.3,0-72.4-12.7-85.3-34.7c-0.1-0.1-0.2-0.2-0.3-0.3L453.8,303.6L453.8,303.6z M460.8,275.4c11.6-22.3,37.4-36.9,66.3-36.9h30.4
	c28.4,0,53.4,13.6,65.5,35.2c-13.9,21-46.4,35.2-81.7,35.3C506.8,308.9,475.3,295.7,460.8,275.4L460.8,275.4z M453.8,385.9
	c20.4,15.5,49.6,24,85.6,24c39,0,69.8-7.5,90.6-21.2v38.5c-11.4,20-44.6,31.5-91.7,31.5c-40.6,0-71.3-12.3-84.6-33.7L453.8,385.9
	L453.8,385.9z M557.1,517.7h-30.4c-38.5,0-70-25.5-72.7-57.6c20.3,14.9,49.1,23.1,84.3,23.1c39.4,0,70.5-7.7,91.3-21.6
	C626.2,493,595,517.7,557.1,517.7L557.1,517.7z M310.1,194.6c-1.3,0.5-2.6,1-3.9,1.4c1.7,6.1,13.4,44.9,42.7,74.2c4,4,4,10.6,0,14.6
	c-2,2-4.7,3-7.3,3s-5.3-1-7.3-3c-17.5-17.5-29.4-37.6-37-53.9c-4,10.2-9.5,21.4-17.3,31.2c-3.5,4.5-10,5.3-14.5,1.8
	c-4.5-3.5-5.3-10-1.8-14.5c13-16.5,18.8-38.4,20.9-48.2c-10.1,1.7-20.1,2.5-29.7,2.5c-25.5,0-48.1-5-62.6-9.2
	C136.9,239.7,69.6,348.2,70,438.9C70.2,487.6,96.7,540,154.2,540h194.3h0.3c45.9-1.4,85.8-48.7,85.3-101.2
	C433.2,347.9,365.4,239.6,310.1,194.6L310.1,194.6z M277.1,368.7c6.7,0,12.2,5.4,12.2,12.2s-5.5,12.2-12.2,12.2h-44.1
	c-0.2,2.1-0.7,4.1-0.7,6.2c0,2.1,0.4,4.1,0.7,6.2h44.1c6.7,0,12.2,5.4,12.2,12.2s-5.5,12.2-12.2,12.2h-35.5c11,17.3,30.9,29,53.7,29
	c6.7,0,12.2,5.5,12.2,12.2c0,6.7-5.4,12.2-12.2,12.2c-36.9,0-68.4-22.2-81.2-53.3h-27.9c-6.7,0-12.2-5.4-12.2-12.2
	s5.4-12.2,12.2-12.2h22.2c-0.2-2.1-0.3-4.1-0.3-6.2s0.2-4.1,0.3-6.2h-22.2c-6.7,0-12.2-5.4-12.2-12.2s5.4-12.2,12.2-12.2h27.9
	c12.8-31.2,44.3-53.3,81.2-53.3c6.7,0,12.2,5.4,12.2,12.2s-5.4,12.2-12.2,12.2c-22.8,0-42.7,11.7-53.7,29L277.1,368.7z M310.6,172.1
	c22-28.2,42.5-70.5,42.5-98.9c0-4.2-2.6-8-6.5-9.6c-39.9-15.9-58.8,7.1-68.9,19.5c-1.9,2.3-4.5,5.5-6.2,6.9
	c-0.4-0.3-0.9-0.7-1.4-1.3c-5.7-5.7-9.9-13.4-14-20.9c-6.3-11.5-12.8-23.5-25.4-24.4c-10.3-0.8-20.4,6.3-33.4,23.6
	c-0.4,0.5-0.7,1-1,1.6c-2.5,5.1-5.3,8.4-7.4,8.9c-3.6,0.7-10.9-4.8-15.7-8.6c-7.3-5.7-15.6-12.1-24.6-8c-8.5,3.9-10.1,14-10.6,23.6
	c-0.4,21.3,24.3,60,50,87.1C203.7,176.9,261.4,193.9,310.6,172.1L310.6,172.1z"/>
</svg>
