<?xml version="1.0" encoding="utf-8"?>
<!-- Generator: Adobe Illustrator 25.2.3, SVG Export Plug-In . SVG Version: 6.00 Build 0)  -->
<svg version="1.1" id="Calque_1" xmlns="http://www.w3.org/2000/svg" xmlns:xlink="http://www.w3.org/1999/xlink" x="0px" y="0px"
	 viewBox="0 0 400 400" style="enable-background:new 0 0 400 400;" xml:space="preserve">
<style type="text/css">
	.st0{fill:#1EADAD;}
	.st1{fill:#FFFFFF;}
</style>
<g>
	<path class="st0" d="M142.2,287.4c0,0-19.4,9.1-11.6,27.2s40.4,16.9,45.4-7c5-23.9-12.8-45.4-34.7-42.1s-42.1,23.5-39.6,46.2
		s16.9,38,24.3,42.9c7.4,5,28.1,26,28.5,29.7c0,0,14.9-33.4,48.3-15.7c0,0-2.9-35.1,26.8-27.2c0,0-10.7-26,7.4-32.6
		c0,0-24.3-26.4,3.7-40.8c28.1-14.4,45,21,45,21s16.9-35.1-5.4-72.6c0,0-26,49.9-56.5,14.9c0,0-9.1-21,5-28.5c0,0-40-26.8,2.9-45.4
		c0,0-23.5-11.1,1.2-29.3c0,0-27.2-23.9,2.5-44.1c0,0-29.7-21.9-4.5-45.4c0,0-23.1,3.3-27.2-22.7c0,0-23.1,41.3-58.2,19.8
		c0,0,5.8,26.4-16.9,30.1c0,0,31.8,26-7.8,54.9l12.4,9.5c0,0,19.8-44.6,40-24.3s-24.3,47.9-29.3,52c-5,4.1-30.9,21.9-27.6,82.1
		c0,0,84.9-3.2,85.8,59.4c0,0-3.7,46.6-42.5,43.7s-46.2-23.5-44.1-40.8C117.4,284.9,138.1,285.3,142.2,287.4z"/>
	<g>
		<circle class="st1" cx="157.4" cy="66.4" r="9.6"/>
		<circle cx="153.6" cy="67.2" r="3.2"/>
	</g>
</g>
</svg>
