<?xml version="1.0" encoding="utf-8"?>
<!-- Generator: Adobe Illustrator 25.2.3, SVG Export Plug-In . SVG Version: 6.00 Build 0)  -->
<svg version="1.1" id="Calque_1" xmlns="http://www.w3.org/2000/svg" xmlns:xlink="http://www.w3.org/1999/xlink" x="0px" y="0px"
	 viewBox="0 0 700 700" style="enable-background:new 0 0 700 700;" xml:space="preserve">
<style type="text/css">
	.st0{fill:#1C3657;}
</style>
<path class="st0" d="M630.1,165.1c0-4.4-0.4-8.8-1.1-13.1v420.1c0.7-4.3,1.1-8.7,1.1-13.1V165.1z"/>
<path class="st0" d="M153.1,642.1H547c4.4,0,8.8-0.4,13.1-1.1H140C144.3,641.7,148.7,642.1,153.1,642.1z"/>
<path class="st0" d="M605.7,106.4C590,90.8,568.9,82.1,546.9,82H153.1c-22,0.1-43.1,8.8-58.7,24.4C78.8,122,70.1,143.1,70,165.1V559
	c0.1,22,8.8,43.1,24.4,58.7c12.5,12.5,28.5,20.5,45.6,23.3h420.1c17.2-2.8,33.1-10.8,45.6-23.3c12.5-12.5,20.5-28.5,23.3-45.6V152
	C626.2,134.9,618.2,118.9,605.7,106.4z M583.4,558.9h-0.1c0,9.7-3.8,18.9-10.7,25.7s-16.1,10.7-25.7,10.7H153.1
	c-9.7,0-18.9-3.8-25.7-10.7s-10.7-16.1-10.7-25.7V165.1c0-9.7,3.8-18.9,10.7-25.7c6.8-6.8,16.1-10.7,25.7-10.7H547
	c9.7,0,18.9,3.8,25.7,10.7c6.8,6.8,10.7,16.1,10.7,25.7V558.9z"/>
<path class="st0" d="M350,222c-37.1,0-72.7,14.8-99,41c-26.3,26.3-41,61.9-41,99c0,37.1,14.8,72.7,41,99c26.3,26.3,61.9,41,99,41
	c37.1,0,72.7-14.8,99-41c26.3-26.3,41-61.9,41-99c0-37.1-14.8-72.7-41-99C422.7,236.8,387.1,222,350,222z M416,428
	c-17.5,17.5-41.2,27.3-66,27.3s-48.5-9.8-66-27.3s-27.3-41.2-27.3-66s9.8-48.5,27.3-66s41.2-27.3,66-27.3s48.5,9.8,66,27.3
	s27.3,41.2,27.3,66S433.5,410.5,416,428z"/>
<circle class="st0" cx="501.7" cy="210.3" r="35"/>
</svg>
