<?xml version="1.0" encoding="utf-8"?>
<!-- Generator: Adobe Illustrator 25.2.3, SVG Export Plug-In . SVG Version: 6.00 Build 0)  -->
<svg version="1.1" id="Calque_1" xmlns="http://www.w3.org/2000/svg" xmlns:xlink="http://www.w3.org/1999/xlink" x="0px" y="0px"
	 viewBox="0 0 1927.3 1928.1" style="enable-background:new 0 0 1927.3 1928.1;" xml:space="preserve">
<style type="text/css">
	.st0{fill:#1B3656;}
	.st1{fill:#EFBB33;}
</style>
<g id="Calque_2_1_">
	<circle class="st0" cx="963.7" cy="964.1" r="911.4"/>
	<g>
		<path class="st1" d="M959.8,1882.3c-246.8,0-478.8-96.1-653.3-270.6S35.9,1205.2,35.9,958.4S132,479.6,306.5,305.1
			S713,34.5,959.8,34.5s478.8,96.1,653.3,270.6s270.6,406.5,270.6,653.3s-96.1,478.8-270.6,653.3S1206.6,1882.3,959.8,1882.3
			 M959.8,64c-238.9,0-463.5,93-632.5,262c-168.9,168.9-262,393.6-262,632.5s93,463.5,262,632.5c168.9,168.9,393.6,262,632.5,262
			s463.5-93,632.5-262c168.9-168.9,262-393.6,262-632.5s-93-463.5-262-632.5C1423.4,157,1198.8,64,959.8,64"/>
		<path class="st1" d="M959.8,1635.9c-373.5,0-677.4-303.9-677.4-677.4s303.9-677.4,677.4-677.4s677.4,303.9,677.4,677.4
			C1637.2,1332,1333.3,1635.9,959.8,1635.9 M959.8,310.5c-357.3,0-648,290.7-648,648s290.7,648,648,648s648-290.7,648-648
			S1317.1,310.5,959.8,310.5"/>
	</g>
	<path class="st1" d="M1341.7,1438.9c-3.7-4.9-41.8-4.5-41.8-4.5s-11.9-21.3-18.4-21.3c0,0-0.9,9.2-4.2,20.3
		c-3.2,11.1-13.9,14.6-13.9,14.6s7.4-30.8-9.8-52.1c-8.5-10.6-28.7-13.1-28.7-13.1s5.7,6.1,6.3,36.7c0.3,19.5-3.2,44.2-3.2,44.2
		s-14.5-22.7-13.9-19.8c10,50.2-7.5,42.4-7.5,42.4s-2.1-36.3-18.8-40.3c-2.1-0.5,10.4,48-9.1,43.1c-7.1-1.8-3.9-28.7-27.1-33.7
		c-2-0.4,11,28.5-4,39.6c-12.7,9.4-18.6,2.7-19.3-4.2c-1.6-16.7-15.3-20.9-15.3-20.9s8.8,14.6,4,21.9s-15.3-1-15.3-1
		s6.2,18.5-3.2,21.9c-15.3,5.6-3.2-18.8-8-31.3s-11.2-15.6-11.2-15.6s-1.9,35.1-14.8,44.2c-9.7,6.8-18.8,7-22.5-2.8
		c-10.9-28.2-20.4-20.5-25.2-19.5c0,0,7.5,30.6,1.6,31.3c-12.8,1.5-7.2-32.3-22.8-42.8c-21.3-14.3-31.4,1-31.4,1s16.1,8.4,16.9,24
		c0.5,9.4-9.9,29.6-29.2,26.1c-7.3-1.3-8.6-15.6-8.6-15.6s-5.6,16-8.8,15.6c-5.6-0.7-4.1-11.2-6.2-20.2c-2-8.4-6.4-7.7-6.4-7.7
		s-0.8,26.4-8,22.3c-7.2-4.2-4.8-19.5-11.8-27.1c-3.1-3.4-7-1.7-7-1.7s5.9,28.2-5.4,30.2c-18.2,3.4-10.2-19.8-16.6-41.7
		c-6.4-21.9-19.8-18.8-19.8-18.8s9.1,57.7-8,44.8c-10.6-8,0.5-30.2-15.5-36.5c-6.5-2.5-12.7-2.1-17.7-0.7c3.4-7.2,6.8-14.2,9.7-20.2
		c2.3-4.9,63.2-139.4,63.2-139.4s14.2-4.4,21.8-24c5.7-14.6,7.6-30.6,7.6-30.6s71-56.8,97.2-98.3c17.4-27.5,12-38.2,12-43.7
		s8.7-20.8,22.9-18.6c9.7,1.5,19.7,4.4,40.4,12c20.8,7.6,63.3,2.2,69.9,0s22.9-9.8,30.6-8.7c15.4,2.2,20.9,1.8,30.6,5.5
		c8.7,3.3-37.1,24-62.2,66.6c-6,10.2-12,19.7-12,41.5c0,62.3-1.1,54.6-7.6,66.6c-6.6,12-14.2,15.3-19.7,20.8s-6.6,12-3.3,19.7
		c3,7,24,30.6,26.2,34.9c2.2,4.4,2.2,17.5,3.3,29.5c1.1,12,3.3,18.6,15.3,26.2s15.3,0,17.5-5.5s1.1-40.4,2.2-48.1
		c1.1-7.6-1.1-32.8-2.2-39.3c-1.1-6.6,0-29.5,0-38.2s38.3-65.6,64.4-97.2c31.7-38.2,53.5-59,59-85.2c3.3-15.9,10.6-26.2-22.1-44.2
		c-38.7-21.3-69.6-36-126.4-35.5c-26.8,0.3-21,1.1-34.9-4.4c-15-5.9-15.3-18.6-22.9-40.4s-4.4-37.1-4.4-44.8
		c0-7.6,12-15.3,13.1-40.4c0.9-20.4-6.6-37.1-5.5-44.8c1.1-7.6,1.1-27.3-6.6-44.8c-7.6-17.5-27.3-43.7-27.3-43.7s2.2-19.7,7.6-25.1
		c5.5-5.5,0,0,28.4-24s39.3-54.6,39.3-54.6s7.6-5.5,24-17.5s34.9-35,40.4-44.8s0-18.6,13.1-31.7c5.5-5.5,8.7-7.6,19.7-12
		c10.9-4.4,26.2-8.7,25.1-14.2s-34,3.3-31.7-9.8c0,0,4.2-1.5,6.7-2.9c7.3-4.1,22.9,3.3,28.3-0.4c4-2.8-3-5.9-13.1-10.9
		c-9.4-4.6-22.1-0.1-31.7,3.3c-9.5,3.4-19.7,27.3-22.9,33.9c-1,2-4.4,6.3-8.6,11.3c-35.1,15.3-115.6,50.4-199.9,87.1
		c-15.5-13.8-43.9-25.2-62.3-28.6c-47-8.7-73.2,25.1-77.5,52.4c-2.3,14.1,1.4,25.1,7.6,33.8c-20.9,9.1-40.5,17.6-57.8,25.2
		c-20.2,8.8-91.1,41.8-172.2,79.8c-12.3,0.4-22.4,4.6-27.6,9.8c-1.2,1.2-3.5,3.4-6.3,6.2c-129.3,60.7-267.8,126-267.8,126
		s-4.4,6.6,4.4,9.8c8.7,3.3,27.3-6.6,53.5-17.5c12.1-5,98.1-44.7,189.5-87c4.1,1.7,9.3,3.6,14.7,5.1c12,3.3,25.1,2.2,31.7,0
		s8.7-7.6,17.5-8.7c8.7-1.1,9.8,0,16.4,3.3s98.1,40.9,127.8,43.7c34.9,3.3,68.8-29.5,75.4-33.9s0.4-3.2,13.1,0
		c13.1,3.3,26.2,22.9,56.8,56.8c34.3,38,27.3,75.4,27.3,75.4s-37.1,15.3-45.9,43.7c-8.7,28.4,13.1,65.5,13.1,65.5
		s-20.7-1.1-44.8,54.6c-11.4,26.5-19.7,108.1-19.7,108.1s-9.7-0.6-22.9,9.8c-20.1,15.9-37.1,66.6-42.6,93.9
		c-2.4,12.2-4,31.8-5.3,50.8c0,0,0.1,50.2-1.5,57.1c-3.2,13.9-18.2,26.4-18.2,26.4s-5.6,2.8-5.9-2.8c-0.8-14.6-3.2-25-9.6-38.6
		s-3.9-6.5-0.8-15.2c1.1-3-14.8-4.2-14.8-4.2s-2.3,7.1-3.2,15.2c-1.3,11.5-7.2,16.7-13.9,8.7c-14.8-17.7-9.1-36.9-9.1-36.9
		c-8,0-22,14.6-24.7,18.8c-2.7,4.2-6.8,16.8-14.3,17.5s-34.4-8.2-39-4.1c-4.7,4.1-3.7,17.6-3.6,17.7c12.3,8,24.9,15.6,37.7,22.7
		c8,4.5,17.3,9.4,27.7,14.4c0.9,0.4,1.8,0.9,2.7,1.3c1.2,0.6,2.3,1.1,3.5,1.7c80.1,38.1,169.8,59.4,264.4,59.4c1.2,0,2.5,0,3.7,0
		c171.8,1.6,309-78.9,359.4-118.1c7-5.1,13.9-10.3,20.6-15.7C1343.8,1444.6,1342.1,1439.4,1341.7,1438.9 M997.5,684.9
		c3.3-2.2,7.6-1.1,9.8-10.9c1.6-7-1.4-13-8.8-21c68.3-32.1,136.9-64.4,172.9-81.6c-4.5,5-61.5,64.4-61.5,64.4s-7.6,7.6-15.3,8.7
		c-22.8,3.3-39.3,10.9-47,16.4c-7.6,5.5-17.5,17.5-20.7,21.8c-3.3,4.4-7.9,10-14.2,12c-5.5,1.8-8.7,4.4-17.5,0
		C986.5,690.4,994.2,687.1,997.5,684.9 M912.3,747.1c-36,10.9-49.2,27.2-54.6,33.9c-7.2,8.9-4.8,17.9-8.7,17.5
		c-20.6-2.1-54.2,29.1-60.1,36c-3.5,4.2-7.5,17.3-15.3,10.9c-18.6-15.3-59-19.7-72.1-21.8c-13.1-2.2-26.2-4.4-32.8-7.6
		c-2.3-1.2-6.7-3-11.9-4.9c75-34.7,138-63.8,146.2-67.2c5.1-2.2,30.4-13.8,65.8-30.3c2.5,1.9,5,3.6,7.4,5.2
		c28.4,18.6,44.8,8.7,49.1,8.7s6.6,4.4,6.6,9.8C931.9,742.8,923.2,743.8,912.3,747.1 M808.2,1478.5c4,2,8.3,5.8,9.8,13.3
		c3.2,15.6,0.8,28.9-8,32c-7.8,2.7-18.6-7-18.2-8.3C793.1,1511,800.3,1495.2,808.2,1478.5"/>
	<g>
		<polygon class="st1" points="253.6,488 269.5,466.1 361.5,532.9 392.3,490.5 409.5,503 362.8,567.3 		"/>
		<polygon class="st1" points="350.4,368 408.3,313.3 422.9,328.7 384.7,364.9 407.5,389 442.5,356 457.1,371.4 422.1,404.5 
			448.1,432 486.6,395.6 501.2,411.1 443.1,466.1 		"/>
		<path class="st1" d="M564.5,207l31-14.5c26.6-12.5,54.5-16.2,68.2,13c13.4,28.5-2.6,48.6-28.9,60.9l-10.3,4.8l21.8,46.4
			l-24.5,11.5L564.5,207z M615.6,252l8.6-4c12.3-5.7,21.4-14.9,14.7-29.1c-6.6-14.2-19.6-14.1-32.2-8.2l-8.6,4L615.6,252z"/>
		<path class="st1" d="M780.8,126.6c41.4-9,70.7,13.9,79.3,53.8c8.7,39.9-7.9,73.5-49.7,82.6c-42.3,9.2-70.7-14.1-79.5-54.5
			C722.1,168.1,738.8,135.8,780.8,126.6 M805.9,242.2c27-5.9,31.8-32,26.6-55.8c-5.1-23.2-21-44.7-47.3-39s-31.8,31.9-26.8,55.1
			C763.7,226.3,778.9,248.1,805.9,242.2"/>
		<path class="st1" d="M930.4,108.7l29.2,0.4c29,0.4,63.6,0,63,37.5c-0.2,15.8-11.1,28.8-28.3,30.9v0.4c7.3,0.7,11.5,8.1,14.1,14.1
			l20.9,53.1l-30.2-0.5l-15.6-42.4c-3.7-10.1-7.1-14-18.5-14.2l-8.7-0.1l-0.8,56.1l-27.1-0.4L930.4,108.7z M956.6,166.8l8.9,0.1
			c13.3,0.2,28.6-1.5,28.9-18.3c0.2-16.2-14.8-17.8-28.3-18l-8.9-0.1L956.6,166.8z"/>
		<polygon class="st1" points="1125.1,146.4 1087.4,138.2 1091.8,117.5 1193.9,139.4 1189.4,160.2 1151.6,152 1127.7,263.2 
			1101.3,257.5 		"/>
		
			<rect x="1180.7" y="216.7" transform="matrix(0.3627 -0.9319 0.9319 0.3627 580.9041 1309.8922)" class="st1" width="134.9" height="27.1"/>
		<path class="st1" d="M1355.6,390.9l-7.4-32.5c-1.8-0.7-3.6-1.8-5.6-3.1c-36.7-23-40.7-59.5-18.7-94.6c22-35,56.5-46.5,92.9-23.7
			c35.9,22.5,40.8,59.4,19.1,93.9c-15.4,24.6-37.8,38.1-62.3,35.3l9.7,41.9L1355.6,390.9z M1353.8,337.4
			c23.4,14.7,45.1-0.7,58.1-21.3c12.6-20.1,16.2-46.6-6.5-60.9c-22.8-14.3-45,0.5-57.7,20.6C1334.8,296.4,1330.4,322.7,1353.8,337.4
			"/>
		<path class="st1" d="M1538.6,330.6l18.8,19.5l-56.1,54.1c-16.6,16-22.3,31.7-7.9,46.6c14.4,14.9,30.3,9.7,46.9-6.3l56.1-54.1
			l18.8,19.5l-62,59.8c-26,25.1-50.9,20.7-75-4.2c-24-24.9-27.5-50-1.5-75.1L1538.6,330.6z"/>
		<polygon class="st1" points="1669.5,483 1711.3,550.9 1693.1,562 1665.6,517.2 1637.3,534.6 1662.5,575.6 1644.4,586.8 
			1619.2,545.8 1586.9,565.6 1614.6,610.7 1596.5,621.9 1554.6,553.7 		"/>
	</g>
	<g>
		<path class="st1" d="M714.6,1769.6c-9.9-1.9-20.4-4.6-29.8-8.8c-39.8-18-58.5-50.4-39.7-92c19-42.1,55.4-54.1,97.2-35.2
			c8.1,3.7,18.1,10.1,25.5,17.7l-11.2,20c-6.9-9.5-14.8-14.6-23.7-18.5c-25.4-11.5-50,0.7-61.4,25.9c-11.3,25-4.3,50.9,21.9,62.7
			c9.7,4.4,22.1,7.4,29.3,7.1L714.6,1769.6z"/>
		<polygon class="st1" points="815.1,1660.4 841.6,1665.7 819.4,1777.2 870.8,1787.4 866.7,1808.3 788.8,1792.8 		"/>
		<path class="st1" d="M935.7,1680.1l27-1.2l3.6,77.8c1.1,23,9.1,37.7,29.8,36.7c20.7-0.9,27.3-16.4,26.2-39.3l-3.6-77.8l27-1.3
			l4,86.1c1.7,36.1-18.1,51.9-52.7,53.5c-34.6,1.6-55.7-12.3-57.4-48.4L935.7,1680.1z"/>
		<path class="st1" d="M1100.6,1663.8l45-14.2c16.6-5.2,43-8.3,51.9,19.9c4.8,15.3-2.1,29.3-16.5,36.9l0.1,0.4
			c18-3.9,33.7,4.1,38.7,20c10.3,32.4-17.4,46.4-33.6,51.6l-45,14.2L1100.6,1663.8z M1142.8,1707.6l10.5-3.3
			c10.9-3.4,23.6-10.1,19.4-23.4c-4.7-14.9-18.2-11.9-29.9-8.2l-10,3.1L1142.8,1707.6z M1160.6,1764l12.2-3.8
			c12-3.8,25.6-11.3,20.9-26.3c-5.3-16.8-19.8-15-32.7-11l-12.2,3.8L1160.6,1764z"/>
	</g>
</g>
</svg>
