<?xml version="1.0" encoding="utf-8"?>
<!-- Generator: Adobe Illustrator 25.2.3, SVG Export Plug-In . SVG Version: 6.00 Build 0)  -->
<svg version="1.1" id="Calque_1" xmlns="http://www.w3.org/2000/svg" xmlns:xlink="http://www.w3.org/1999/xlink" x="0px" y="0px"
	 viewBox="0 0 700 700" style="enable-background:new 0 0 700 700;" xml:space="preserve">
<style type="text/css">
	.st0{fill:#FFFCD3;}
	.st1{fill:#1C3657;}
	.st2{fill:#EDEDED;}
	.st3{fill:#74B2FB;}
</style>
<g>
	<circle class="st0" cx="356.3" cy="352" r="229"/>
</g>
<g>
	<circle class="st1" cx="356.3" cy="352" r="206.5"/>
</g>
<g>
	<g>
		<path class="st2" d="M256.4,329.7c-3.2-3.2,52.9-44.5,59-42.8c6.1,1.7,20.4,12.6,25.4,6.1c5.1-6.4,1.4-20.7-6.8-24.4
			c-8.1-3.7-13.6-4.8-20.4-3.7c-6.8,1-96.7,71.3-99.1,73.3c-2.4,2-2.5,19.9-0.6,20.9c1.9,1,8.2-0.1,10,2.5c1.8,2.6,0.6,27,8,37.1
			c7.4,10.1,30.9,18.9,42.4,18.7s41.1,5.4,56.2-17s20.7-40.8,25.9-40.5c5.2,0.3,21.7,38.2,27.8,45.2c6.1,7,27,12.1,47.1,12
			c20.2-0.1,38.1-1,44.1-8.9c6-7.9,13.5-29.4,13.4-37.6c-0.3-8.9,7-8.9,8.8-10.7c1.8-1.8,1.8-9.7,1.8-13c0-3.3-7.7-14.9-11.2-17.5
			c-3.6-2.6-71.2-64.9-93.9-64.9s-28,20.8-28,20.8s4.5,11,9.2,10.1c4.7-0.9,9.1-7,12.9-8.7c3.8-1.7,17,5.5,20.8,8.8
			c3.8,3.3,48.7,32.6,46.2,34.2c-2.4,1.7-42.6-1.2-53.2,1.1c-10.4,2.3-33.3,10.6-46.3,11c-13,0.4-55.8-12.5-64.8-12.7
			C282.6,328.8,259.3,330.7,256.4,329.7z"/>
	</g>
	<g>
		<path class="st3" d="M242.8,391.8c4,6.6,19.5,14.3,35.1,15c15.6,0.7,27.7,0.7,35.8-5.5s26.7-39.5,26.7-41.1c0-1.6-1-10.5-7.8-12
			c-6.8-1.4-38.5-9.2-41-9.2s-35.8-0.4-41.4,1.4c-5.6,1.9-14.6,7.4-13.7,15S238.8,385.2,242.8,391.8z"/>
	</g>
	<g>
		<path class="st3" d="M472.5,391.8c-4.1,6.6-19.9,14.3-35.9,15c-16,0.7-28.4,0.7-36.7-5.5s-27.3-39.5-27.3-41.1
			c0-1.6,1.1-10.5,8-12c6.9-1.4,39.4-9.2,42-9.2s36.7-0.4,42.4,1.4c5.7,1.9,14.9,7.4,14,15S476.5,385.2,472.5,391.8z"/>
	</g>
</g>
</svg>
