<?xml version="1.0" encoding="utf-8"?>
<!-- Generator: Adobe Illustrator 25.2.3, SVG Export Plug-In . SVG Version: 6.00 Build 0)  -->
<svg version="1.1" id="Calque_1" xmlns="http://www.w3.org/2000/svg" xmlns:xlink="http://www.w3.org/1999/xlink" x="0px" y="0px"
	 viewBox="0 0 700 700" style="enable-background:new 0 0 700 700;" xml:space="preserve">
<style type="text/css">
	.st0{fill:#FFFCD3;}
	.st1{fill:#1C3657;}
	.st2{fill:#FF7235;}
	.st3{fill:#FCFCFA;}
</style>
<g>
	<circle class="st0" cx="356.3" cy="352" r="229"/>
</g>
<g>
	<circle class="st1" cx="356.3" cy="352" r="206.5"/>
</g>
<g>
	<g>
		<path class="st2" d="M345,459.2c18.1,0,24.8-3.2,33.6-9.1c8.7-5.9,20.3-40.5,26.7-48c6.4-7.5,57-35.2,82.1-37.8
			c0,0,4.9-32.6,0.4-51c-4.5-18.4-7.9-27.9-15.9-34.3c0,0-38.4,10.7-82.6,9.1c-44.2-1.6-94.9-6.4-117.8-24c0,0-45.8,33.6-48.5,82.1
			c0,0,8,12.3,21.3,19.2s42.1,24.5,49.6,34.6c7.5,10.1,13.4,44.1,21.9,51.2C324.2,458.2,345,459.2,345,459.2z"/>
	</g>
	<g>
		<path class="st3" d="M304.7,278.4c-30.4,31.1-54.8,80.1-54.7,90.1c-14-6.3-22.2-16.2-22.2-16.2s21.3-63.7,56.7-80.6
			C293.3,275.6,303.2,278,304.7,278.4z"/>
	</g>
	<g>
		<path class="st3" d="M451.8,375.6c0,0,4.7-72.5-17.6-89.6c20.1-2.7,17.3-2.8,25-4.1c9.4,10.7,17.8,29.9,15.8,85
			C464,369.9,451.8,375.6,451.8,375.6z"/>
	</g>
	<g>
		<path class="st3" d="M398.3,339c0,0,8.3,11.5,14.8,11.5s14.3-10.1,14.6-10.5s0.1-1.7-2-0.6s-8.2,2.1-10.8,2.1s-14.2-4.2-15.7-3.7
			S398.3,339,398.3,339z"/>
	</g>
	<g>
		<circle class="st3" cx="421.5" cy="329.4" r="5.2"/>
	</g>
	<g>
		<circle class="st3" cx="405.5" cy="329.4" r="5.2"/>
	</g>
</g>
</svg>
