<?xml version="1.0" encoding="utf-8"?>
<!-- Generator: Adobe Illustrator 25.2.3, SVG Export Plug-In . SVG Version: 6.00 Build 0)  -->
<svg version="1.1" id="Calque_1" xmlns="http://www.w3.org/2000/svg" xmlns:xlink="http://www.w3.org/1999/xlink" x="0px" y="0px"
	 viewBox="0 0 700 700" style="enable-background:new 0 0 700 700;" xml:space="preserve">
<style type="text/css">
	.st0{fill:#1C3657;}
</style>
<path class="st0" d="M603.8,371h-7.1c-0.5,0-0.9,0-1.4,0.1c-11.6,2.8-22.3,8.4-31.1,16.4c-10.6,10.1-24.5,16.1-39.1,16.8
	c-9.1,0.2-18.2-1.8-26.2-6v-18.5c0-16.2-6.5-31.8-18-43.3s-27.1-17.9-43.3-18H385v-17.1c13.1-6.5,24.2-16.6,31.9-29
	c7.7-12.4,11.8-26.8,11.9-41.4v-8.8h8.8c4.6,0,9.1-1.9,12.4-5.1s5.1-7.7,5.1-12.4v-17.5c0-4.6-1.9-9.1-5.1-12.4
	c-3.3-3.3-7.7-5.1-12.4-5.1h-8.8V161c0-28.1-15-54.1-39.4-68.2s-54.4-14.1-78.8,0s-39.4,40.1-39.4,68.2v8.8h-8.8
	c-4.6,0-9.1,1.9-12.4,5.1c-3.3,3.3-5.1,7.7-5.1,12.4v17.5c0,4.6,1.9,9.1,5.1,12.4s7.7,5.1,12.4,5.1h8.8v8.8c0,14.6,4.1,29,11.9,41.4
	c7.7,12.4,18.8,22.5,31.9,29v17.1h-52.5c-16.2,0-31.8,6.5-43.3,18s-17.9,27.1-18,43.3v18.4c-8.1,4.3-17.2,6.4-26.3,6.1
	c-14.6-0.7-28.5-6.7-39.1-16.8c-8.9-8-19.6-13.6-31.2-16.4c-0.5-0.1-0.9-0.1-1.4-0.1h-7c-4.8,0-8.8,3.9-8.8,8.8v218.7
	c0,2.3,0.9,4.5,2.6,6.2s3.9,2.6,6.2,2.6h507.5c2.3,0,4.5-0.9,6.2-2.6s2.6-3.9,2.6-6.2V379.7c0-2.3-0.9-4.5-2.6-6.2
	S606.1,371,603.8,371L603.8,371z M428.8,187.2h8.8v17.5h-8.8V187.2z M271.2,204.7h-8.8v-17.5h8.8V204.7z M448,371.4
	c-1.2-2.9-1.8-6-1.8-9.2v-25.4c9.9,2,18.7,7.4,25.1,15.2c6.4,7.8,9.9,17.6,9.9,27.6v85.6c-11.5-8.3-25.1-13.1-39.3-13.6l4.6-9.4l0,0
	c5.6-11,8.4-23.2,8.4-35.5v-2.6C454.8,392.9,452.4,381.8,448,371.4L448,371.4z M288.8,231v-47.1c5.9,6.8,14.2,11.1,23.1,11.9
	c8.9,0.9,17.9-1.8,25-7.3c7.1-5.6,11.7-13.6,13-22.5s-0.9-17.9-6.1-25.3c-5.2-7.3-13-12.4-21.8-14.1c-8.8-1.7-18,0-25.5,4.9
	c7.1-12.9,18.5-22.8,32.3-27.9s28.9-5.1,42.7,0c13.8,5.1,25.2,15,32.3,27.9c-7.6-4.8-16.7-6.6-25.5-4.9c-8.8,1.7-16.6,6.8-21.8,14.1
	c-5.2,7.3-7.4,16.4-6.1,25.3c1.3,8.9,6,17,13,22.5c7.1,5.5,16,8.2,25,7.3c8.9-0.9,17.2-5.1,23.1-11.9V231c0,21.9-11.7,42.1-30.6,53
	s-42.3,10.9-61.2,0C300.4,273.1,288.7,252.9,288.8,231L288.8,231z M297.5,161c0-4.6,1.8-9.1,5.1-12.4s7.7-5.1,12.4-5.1
	s9.1,1.8,12.4,5.1s5.1,7.7,5.1,12.4c0,4.6-1.8,9.1-5.1,12.4s-7.7,5.1-12.4,5.1c-4.6,0-9.1-1.9-12.4-5.1
	C299.4,170.1,297.5,165.6,297.5,161L297.5,161z M402.5,161c0,4.6-1.8,9.1-5.1,12.4s-7.7,5.1-12.4,5.1s-9.1-1.8-12.4-5.1
	s-5.1-7.7-5.1-12.4c0-4.6,1.8-9.1,5.1-12.4s7.7-5.1,12.4-5.1c4.6,0,9.1,1.9,12.4,5.1C400.6,151.9,402.5,156.4,402.5,161L402.5,161z
	 M323.8,336c2.3,0,4.5-0.9,6.2-2.6s2.6-3.9,2.6-6.2v-19.5c11.5,2.7,23.5,2.7,35,0v19.5c0,2.3,0.9,4.5,2.6,6.2s3.9,2.6,6.2,2.6h17.2
	c-0.5,11.8-5.5,23-14,31.3c-8.1,8.2-19.1,12.7-30.6,12.4c-11.4-0.3-22.2-5-30.2-13.2s-12.4-19.1-12.4-30.5L323.8,336L323.8,336z
	 M262.5,404.2c0.3-9,2.2-17.8,5.8-26.1c2-5,3-10.4,3-15.8V336h17.5c0,16,6.3,31.3,17.4,42.7c11.1,11.4,26.3,18.1,42.2,18.5
	c16.2,0.3,31.8-6,43.3-17.4c11.9-11.6,18.8-27.3,19.5-43.8h17.5v26.2c0,5.4,1,10.7,3,15.7c3.6,8.3,5.5,17.2,5.8,26.2v2.6
	c0,9.6-2.2,19.1-6.5,27.6l-9.3,18.6c-12.2,2.6-23.5,8.1-33.2,15.9c-10.8,9.1-24.5,14.1-38.7,14.1c-14.1,0-27.8-5-38.7-14.1
	c-9.6-7.8-20.9-13.3-33-15.9l-9.2-18.4c-4.3-8.6-6.6-18.2-6.6-27.8v-2.5H262.5z M218.8,379.7c0-10.1,3.5-19.8,9.9-27.6
	c6.4-7.8,15.2-13.2,25.1-15.2v25.4c0,3.2-0.6,6.4-1.8,9.4c-4.4,10.3-6.8,21.4-7,32.6v2.6c0,12.4,2.8,24.6,8.4,35.6l4.6,9.3l0,0
	c-14.2,0.5-27.8,5.2-39.3,13.6L218.8,379.7z M105,389.1c7.4,2.8,14.2,7,20.2,12.2c13.6,12.5,31.2,19.8,49.7,20.5
	c9,0.2,17.9-1.4,26.3-4.5V477l0,0c-8.1,4.2-17.2,6.3-26.3,6c-14.6-0.7-28.5-6.7-39.1-16.8c-8.8-7.9-19.3-13.5-30.8-16.3L105,389.1z
	 M595,589.8H105V467.9c7.4,2.8,14.2,7,20.2,12.2c13.6,12.5,31.2,19.8,49.7,20.5c17.8,0.2,35.2-6,48.8-17.4
	c10.8-9.1,24.5-14.1,38.7-14.1c14.1,0,27.8,5,38.7,14.1c13.8,11.3,31,17.4,48.8,17.4s35-6.2,48.8-17.4c10.8-9.1,24.5-14.1,38.7-14.1
	c14.1,0,27.8,5,38.7,14.1c13.7,11.5,31.1,17.7,48.9,17.4c18.5-0.7,36.1-7.9,49.7-20.5c6-5.2,12.9-9.3,20.3-12.2V589.8z M595,449.9
	c-11.5,2.8-22.1,8.3-30.9,16.3c-10.6,10.1-24.5,16.1-39.1,16.8c-9.1,0.3-18.2-1.8-26.2-6v-59.6c8.4,3,17.3,4.5,26.2,4.4
	c18.5-0.7,36.1-7.9,49.7-20.5c6-5.2,12.9-9.3,20.3-12.2V449.9z"/>
<path class="st0" d="M323.8,204.7c-4.8,0-8.8,3.9-8.8,8.8v8.8c0,4.8,3.9,8.8,8.8,8.8s8.8-3.9,8.8-8.8v-8.8c0-2.3-0.9-4.5-2.6-6.2
	S326.1,204.7,323.8,204.7z"/>
<path class="st0" d="M376.2,231c2.3,0,4.5-0.9,6.2-2.6s2.6-3.9,2.6-6.2v-8.8c0-4.8-3.9-8.8-8.8-8.8s-8.8,3.9-8.8,8.8v8.8
	c0,2.3,0.9,4.5,2.6,6.2S373.9,231,376.2,231z"/>
<polygon class="st0" points="608,595 604,465.2 587.1,460.5 532.7,494.2 473.7,476.8 436.5,460.5 361.4,493.9 286.6,463 
	217.4,475.8 172.7,496.7 97.4,458.7 98.7,599.1 601.9,602.7 "/>
</svg>
