<?xml version="1.0" encoding="utf-8"?>
<!-- Generator: Adobe Illustrator 25.2.3, SVG Export Plug-In . SVG Version: 6.00 Build 0)  -->
<svg version="1.1" id="Calque_1" xmlns="http://www.w3.org/2000/svg" xmlns:xlink="http://www.w3.org/1999/xlink" x="0px" y="0px"
	 viewBox="0 0 700 700" style="enable-background:new 0 0 700 700;" xml:space="preserve">
<style type="text/css">
	.st0{fill:#FFFCD3;}
	.st1{fill:#1C3657;}
	.st2{fill:#EDEDED;}
	.st3{fill:none;}
	.st4{fill:#B2B2B2;}
	.st5{fill:#FFD741;}
	.st6{fill:#00D7E2;}
	.st7{fill:#FF722B;}
</style>
<g>
	<circle class="st0" cx="356.3" cy="352" r="229"/>
</g>
<g>
	<circle class="st1" cx="356.3" cy="352" r="206.5"/>
</g>
<g>
	<polygon class="st2" points="425.9,463.7 432.1,448.2 429,327.4 414.7,315.8 286.5,319.3 277.9,393.9 284.7,458.5 403.5,466.1 	"/>
</g>
<g>
	<path d="M436.6,329.5L436.6,329.5c0,0.1,0,0.1,0,0.1C436.6,329.6,436.6,329.5,436.6,329.5z"/>
</g>
<g>
	<path d="M436.6,329.6l0.2,14.9C436.8,344.4,436.7,331.2,436.6,329.6C436.6,329.6,436.6,329.6,436.6,329.6z"/>
</g>
<g>
	<path class="st3" d="M415.2,321.9H297.5c-6,0-10.9,4.9-10.9,10.9v114.8c0,6,4.9,10.9,10.9,10.9h117.7c6,0,10.9-4.9,10.9-10.9V332.9
		C426.1,326.9,421.2,321.9,415.2,321.9z"/>
</g>
<g>
	<path class="st3" d="M439.3,330.2l0.2,14.3C439.5,344.4,439.4,333.1,439.3,330.2L439.3,330.2z"/>
</g>
<g>
	<path d="M439.3,330.2L439.3,330.2c0-0.2,0-0.4,0-0.6C439.3,329.8,439.3,329.9,439.3,330.2z"/>
</g>
<g>
	<g>
		<path class="st2" d="M436.7,330.2c0-0.2,0-0.4-0.1-0.6c0-0.1,0-0.1,0-0.1l0,0.1c-1.6-12-12-21.1-24.2-21.1h-115h0
			c-12.3,0-22.7,9.3-24.2,21.4l-0.2,14.3v103.4c0,13.4,11,24.4,24.4,24.4h117.7c13.4,0,24.4-11,24.4-24.4V344.4l-0.2-14.3H436.7z
			 M426.1,447.6c0,6-4.9,10.9-10.9,10.9H297.5c-6,0-10.9-4.9-10.9-10.9V332.9c0-6,4.9-10.9,10.9-10.9h117.7c6,0,10.9,4.9,10.9,10.9
			V447.6z"/>
	</g>
	<g>
		<path class="st2" d="M415.2,308.5h-2.7c12.2,0,22.5,9.1,24.2,21.1l0-0.1c0,0,0,0.1,0,0.1c0,0.2,0.1,0.4,0.1,0.6h2.6l0-0.6
			C437.7,317.6,427.3,308.5,415.2,308.5z"/>
	</g>
</g>
<g>
	<path d="M273.3,329.8c0,0,0,0.1,0,0.2C273.2,330,273.3,329.9,273.3,329.8L273.3,329.8z"/>
</g>
<g>
	<path class="st3" d="M439.3,338.8c0,0.1,0,0.3,0,0.6h0.1C439.4,339.2,439.4,339,439.3,338.8z"/>
</g>
<g>
	<path class="st4" d="M363,252.9c7.1-7.1,16.7-14.1,16.4-24.8c-0.3-11.6-11.9-21.8-23.3-21.4c-13.8,0.4-24.9,11.1-24.9,25.1
		c0,8.9,13.5,8.9,13.5,0l0,0c0-6.7,5.3-11.5,11.8-11.7c3.9-0.1,9.4,4.2,9.6,8.4c0.1,3.9-11.4,13.8-14.5,16.9c-1.3,1.3-2,3-2,4.8v9.8
		l13.5,0V252.9z"/>
</g>
<g>
	<g>
		<path class="st5" d="M462.5,307.8l-99.4-48l-13.5,0c-33.1,16.1-66.3,32-99.4,47.9c-22,10.6-14.7,45,10.1,45h12.8v0.6
			c0,0,0-12.4,0.2-14.2c0,0.1,0,0.1,0,0.2h-2.7h-10.3h-2.7c-10.7,0-13.5-15-4.2-19.5l100.3-48.4l1.4,0.7l1.4-0.7l100.3,48.4
			c9.2,4.4,6.4,19.5-4.2,19.5h-2.7h-10.3h-0.1c0.1,3,0.2,14.3,0.2,14.3v-0.8h12.8C477.3,352.8,484.4,318.4,462.5,307.8z"/>
	</g>
	<g>
		<path class="st5" d="M256,319.9l99-47.7l-1.4-0.7l-100.3,48.4c-9.2,4.4-6.4,19.5,4.2,19.5h2.7C249.6,339.4,246.8,324.4,256,319.9z
			"/>
	</g>
</g>
<g>
	<rect x="296.6" y="308.5" class="st6" width="20.7" height="163.5"/>
</g>
<g>
	<rect x="393.5" y="308.5" class="st7" width="17.8" height="163.5"/>
</g>
</svg>
